<?xml version="1.0" standalone="no"?>
<!DOCTYPE svg PUBLIC "-//W3C//DTD SVG 1.1//EN" "http://www.w3.org/Graphics/SVG/1.1/DTD/svg11.dtd" >
<svg xmlns="http://www.w3.org/2000/svg" xmlns:xlink="http://www.w3.org/1999/xlink" version="1.1">
<metadata>
Created by FontForge 20160407 at Wed May  4 10:12:25 2016
 By Jimmy Wärting
Copyright (C) 1996-2005, Hoefler &#38; Frere-Jones, Inc. www.typography.com
</metadata>
<defs>
<font id="MercuryDisplay-Roman" horiz-adv-x="500" >
  <font-face 
    font-family="Mercury Display"
    font-weight="500"
    font-stretch="normal"
    units-per-em="1000"
    panose-1="0 0 0 0 0 0 0 0 0 0"
    ascent="800"
    descent="-200"
    x-height="448"
    cap-height="637"
    bbox="-71 -266 968 891"
    underline-thickness="28"
    underline-position="-100"
    stemh="23"
    stemv="100"
    unicode-range="U+0005-00FF"
  />
<missing-glyph 
 />
    <glyph glyph-name=".notdef" 
 />
    <glyph glyph-name="breve" horiz-adv-x="336" 
d="M169 575c57 0 90 26 115 78l17 -7c-10 -81 -53 -129 -132 -129s-123 48 -134 129l17 7c25 -52 60 -78 117 -78z" />
    <glyph glyph-name="dotaccent" horiz-adv-x="192" 
d="M147 610c0 -28 -23 -54 -54 -54c-28 0 -48 21 -48 49s23 54 54 54c28 0 48 -21 48 -49z" />
    <glyph glyph-name="ring" horiz-adv-x="259" 
d="M221 592c0 -45 -38 -89 -94 -89c-55 0 -89 40 -89 89c0 45 38 89 94 89c55 0 89 -40 89 -89zM176 592c0 47 -17 71 -48 71c-29 0 -46 -25 -46 -72c0 -46 19 -71 48 -71c30 0 46 25 46 72z" />
    <glyph glyph-name="hungarumlaut" unicode="&#xa;" horiz-adv-x="320" 
d="M286 639c-17 -26 -74 -78 -118 -128l-12 8c28 61 52 133 70 159c13 21 36 30 54 19c18 -12 20 -36 6 -58zM158 640c-16 -27 -71 -81 -110 -129l-13 8c24 57 45 130 61 157c12 21 35 32 54 21c18 -12 21 -35 8 -57z" />
    <glyph glyph-name="ogonek" horiz-adv-x="269" 
d="M205 35c-78 -61 -134 -112 -134 -178c0 -47 30 -70 72 -70c19 0 39 7 48 15l8 -8c-16 -26 -44 -47 -88 -47c-63 0 -103 44 -103 99c0 73 76 133 189 199z" />
    <glyph glyph-name="caron" horiz-adv-x="299" 
d="M150 605l112 100l12 -10l-120 -177h-15l-114 177l12 10z" />
    <glyph glyph-name="dotlessi" unicode="&#xd;" horiz-adv-x="281" 
d="M105 31v347l-66 42v9l146 36l4 -3v-431l67 -18v-13h-221v13z" />
    <glyph glyph-name="fraction" horiz-adv-x="536" 
d="M515 622l-235 -325l-230 -329l-29 20l235 326l230 329z" />
    <glyph glyph-name="fi" horiz-adv-x="575" 
d="M200 402v-371l67 -17v-14h-218v14l66 17v371h-90v18l90 26v54c0 91 33 159 108 205c35 20 79 36 124 36c86 0 112 -47 112 -80c0 -29 -19 -49 -48 -49c-35 0 -71 31 -82 100c-87 -18 -129 -71 -129 -206v-63h186l94 22l4 -2v-432l66 -17v-14h-216v14l66 17v371h-200z" />
    <glyph glyph-name="fl" horiz-adv-x="570" 
d="M484 31l66 -17v-14h-220v14l70 17v371h-200v-371l67 -17v-14h-218v14l66 17v371h-90v18l90 26v54c0 91 33 159 108 205c35 20 79 36 124 36c31 0 54 -6 70 -15l63 16l4 -3v-708zM400 443v170c-32 6 -61 37 -71 99c-87 -18 -129 -71 -129 -206v-63h200z" />
    <glyph glyph-name="Lslash" horiz-adv-x="610" 
d="M582 195l-26 -195h-520v17l99 18v245c0 1 -72 -19 -72 -19l-8 32s80 22 80 21v288l-99 18v17h299v-17l-99 -18v-260l123 33l9 -32l-132 -35v-274h150c59 0 72 16 100 53l87 112z" />
    <glyph glyph-name="lslash" horiz-adv-x="309" 
d="M203 354v-323l66 -18v-13h-221v13l70 18v300l-81 -22l-8 32l89 24v284l-73 43v10l154 39l4 -2v-351l96 26l9 -32z" />
    <glyph glyph-name="Zcaron" horiz-adv-x="638" 
d="M333 791l112 100l12 -10l-120 -177h-15l-114 177l12 10zM594 195l-26 -195h-526l-4 10l408 594h-179c-62 0 -75 -21 -111 -60l-77 -85l-9 7l24 171h483l4 -10l-408 -593h225c59 0 72 16 100 53l87 112z" />
    <glyph glyph-name="zcaron" horiz-adv-x="464" 
d="M228 605l112 100l12 -10l-120 -177h-15l-114 177l12 10zM429 441l-283 -413h164l105 112l12 -6l-16 -134h-380l-3 7l282 413h-150l-97 -112l-11 6l12 134h362z" />
    <glyph glyph-name="space" unicode=" " horiz-adv-x="230" 
 />
    <glyph glyph-name="exclam" unicode="!" horiz-adv-x="268" 
d="M191 589c0 -53 -24 -243 -45 -414h-22c-21 171 -45 361 -45 414c0 41 24 63 56 63c33 0 56 -22 56 -63zM194 45c0 -33 -27 -60 -60 -60s-60 27 -60 60s27 60 60 60s60 -27 60 -60z" />
    <glyph glyph-name="quotedbl" unicode="&#x22;" horiz-adv-x="313" 
d="M287 619c0 -6 -1 -14 -4 -21c-6 -14 -17 -32 -56 -96l-39 -64l-12 5l15 73c16 74 21 94 26 108c8 18 20 28 34 28c16 0 36 -12 36 -33zM159 619c0 -6 -1 -14 -4 -21c-6 -14 -16 -32 -56 -96l-39 -64l-12 5l16 73c15 74 20 94 25 108c8 18 20 28 34 28c16 0 36 -12 36 -33
z" />
    <glyph glyph-name="numbersign" unicode="#" horiz-adv-x="581" 
d="M536 372h-124l-21 -71l-19 -69h133v-33h-142l-41 -153l-35 10l42 143h-137l-41 -153l-35 10l42 143c1 0 -113 0 -113 0v33h123l23 77l17 63h-132v33h141l45 161l34 -10l-45 -151h137l45 161l34 -10l-45 -151h114v-33zM379 372h-138l-21 -71l-19 -69h138l23 77z" />
    <glyph glyph-name="dollar" unicode="$" horiz-adv-x="547" 
d="M477 183c0 -120 -87 -193 -211 -198l-5 -84l-37 4l7 80c-58 2 -108 12 -162 36l-10 171l17 2c37 -100 97 -157 157 -175c1 0 21 248 21 247c-84 34 -176 68 -176 174c0 104 79 184 200 188l5 71l37 -5l-6 -67c48 -3 102 -12 133 -24l4 -151l-17 -3
c-38 79 -80 123 -123 140l-18 -222c86 -36 184 -72 184 -184zM276 598c-63 7 -113 -28 -113 -102c0 -59 44 -90 99 -115zM391 138c0 62 -48 91 -107 116l-16 -241c77 -2 123 45 123 125z" />
    <glyph glyph-name="percent" unicode="%" horiz-adv-x="746" 
d="M365 460c0 -88 -61 -170 -170 -170c-106 0 -161 74 -161 168c0 89 62 169 171 169c106 0 160 -73 160 -167zM126 -12l235 326l230 329l29 -21l-235 -325l-230 -329zM712 154c0 -88 -61 -170 -170 -170c-106 0 -160 74 -160 168c0 89 62 169 170 169
c107 0 160 -73 160 -167zM287 460c0 98 -36 148 -89 148c-51 0 -87 -51 -87 -151c0 -99 39 -148 90 -148c54 0 86 50 86 151zM459 151c0 -99 39 -148 90 -148c53 0 86 50 86 151c0 98 -36 148 -90 148c-51 0 -86 -51 -86 -151z" />
    <glyph glyph-name="ampersand" unicode="&#x26;" horiz-adv-x="695" 
d="M683 340v-13l-67 -25l-133 -177c54 -65 84 -81 130 -81c25 0 35 1 52 2l4 -11c-40 -29 -81 -50 -130 -50c-46 0 -84 29 -124 82c-63 -53 -112 -82 -184 -82c-117 0 -198 73 -198 169c0 83 57 146 130 182l36 18c-41 49 -58 96 -58 134c0 88 82 140 165 140
c97 0 146 -64 146 -122c0 -46 -31 -90 -107 -138l-30 -19l153 -203l86 155l-53 29v10h182zM370 511c0 53 -31 93 -75 93c-42 0 -70 -32 -70 -87c0 -33 13 -61 46 -107l32 -44c49 52 67 95 67 145zM401 84l-189 255l-18 -18c-33 -33 -65 -83 -65 -143c0 -77 62 -125 147 -125
c47 0 85 12 125 31z" />
    <glyph glyph-name="quotesingle" unicode="'" horiz-adv-x="185" 
d="M159 619c0 -6 -1 -14 -4 -21c-6 -14 -16 -32 -56 -96l-39 -64l-12 5l16 73c15 74 20 94 25 108c8 18 20 28 34 28c16 0 36 -12 36 -33z" />
    <glyph glyph-name="parenleft" unicode="(" horiz-adv-x="341" 
d="M133 282c0 -209 97 -379 240 -442l-6 -16c-154 51 -308 224 -308 458s154 407 308 459l6 -16c-143 -64 -240 -233 -240 -443z" />
    <glyph glyph-name="parenright" unicode=")" horiz-adv-x="341" 
d="M282 282c0 -234 -154 -407 -308 -458l-6 16c143 63 240 233 240 442c0 210 -97 379 -240 443l6 16c154 -52 308 -225 308 -459z" />
    <glyph glyph-name="asterisk" unicode="*" horiz-adv-x="345" 
d="M310 424l-5 -10c-14 -4 -29 -8 -54 6c-16 9 -36 26 -63 54l-4 -2c12 -37 16 -63 16 -81c0 -29 -11 -40 -21 -50h-12c-11 10 -22 21 -22 50c0 18 4 44 16 81l-4 2c-26 -28 -47 -45 -63 -54c-24 -14 -40 -10 -53 -6l-6 10c3 14 7 29 32 43c16 9 40 19 79 27v5
c-39 9 -63 18 -79 27c-25 14 -29 30 -32 43l6 11c13 4 29 8 53 -7c16 -9 37 -25 63 -54l4 2c-11 38 -16 63 -16 82c0 28 12 40 22 49h12c10 -9 21 -21 21 -49c0 -19 -4 -44 -16 -82l4 -2c27 29 47 45 63 54c25 15 40 11 53 7l6 -11c-3 -13 -7 -29 -32 -43
c-16 -9 -40 -18 -78 -27v-5c38 -8 62 -18 78 -27c25 -14 29 -29 32 -43z" />
    <glyph glyph-name="plus" unicode="+" horiz-adv-x="505" 
d="M464 284h-188v-190h-46v190h-189v45h189v187h46v-187h188v-45z" />
    <glyph glyph-name="comma" unicode="," horiz-adv-x="232" 
d="M185 21c0 -50 -38 -105 -120 -145l-10 12c56 47 75 80 83 109l-2 1l-17 -4c-5 -2 -10 -2 -15 -2c-28 0 -48 22 -48 51c0 33 26 61 60 61c43 0 69 -34 69 -83z" />
    <glyph glyph-name="hyphen" unicode="-" horiz-adv-x="336" 
d="M286 206h-236v57h236v-57z" />
    <glyph glyph-name="period" unicode="." horiz-adv-x="211" 
d="M166 44c0 -33 -27 -60 -60 -60c-34 0 -61 27 -61 60s27 60 61 60c33 0 60 -27 60 -60z" />
    <glyph glyph-name="slash" unicode="/" horiz-adv-x="385" 
d="M429 727l-206 -467l-200 -470l-33 15l206 466l200 470z" />
    <glyph glyph-name="zero" unicode="0" horiz-adv-x="562" 
d="M521 306c0 -180 -93 -321 -244 -321c-159 0 -237 141 -237 321c0 181 93 322 244 322c159 0 237 -141 237 -322zM417 306c0 209 -69 298 -145 298c-67 0 -128 -64 -128 -298s69 -298 145 -298c67 0 128 90 128 298z" />
    <glyph glyph-name="one" unicode="1" horiz-adv-x="384" 
d="M244 49l111 -33v-16h-312v16l111 33v486l-112 41v12l197 33l5 -3v-569z" />
    <glyph glyph-name="two" unicode="2" horiz-adv-x="513" 
d="M329 423c0 75 -41 127 -112 127c-49 0 -97 -21 -148 -72l-8 11c40 88 123 139 195 139c110 0 174 -76 174 -179c0 -92 -87 -221 -283 -367l2 -3h216l87 90l10 -3l-40 -166h-396l-6 12c94 69 167 138 216 197c68 83 93 149 93 214z" />
    <glyph glyph-name="three" unicode="3" horiz-adv-x="483" 
d="M430 177c0 -105 -96 -192 -215 -192c-106 0 -175 41 -175 95c0 33 23 57 55 57c42 0 72 -41 60 -101c21 -17 47 -26 75 -26c66 0 113 51 113 125c0 85 -59 145 -204 156v12c148 51 180 106 180 164c0 51 -41 87 -107 87c-49 0 -90 -19 -142 -52l-10 11
c47 61 116 115 194 115c104 0 151 -66 151 -127c0 -66 -52 -120 -126 -153v-7c106 -23 151 -94 151 -164z" />
    <glyph glyph-name="four" unicode="4" horiz-adv-x="546" 
d="M506 192h-123v-143l104 -33v-16h-299v16l106 33v143h-252l-8 18l336 417l13 -6v-365h123v-64zM294 256v226h-2l-182 -226h184z" />
    <glyph glyph-name="five" unicode="5" horiz-adv-x="493" 
d="M441 196c0 -118 -101 -211 -222 -211c-102 0 -173 41 -173 95c0 33 23 57 55 57c43 0 72 -41 60 -101c21 -17 48 -26 77 -26c60 0 115 48 115 143c0 87 -66 151 -170 151c-33 0 -60 -4 -97 -15l-5 4l36 319h258l41 42l11 -3l-21 -123h-267l-19 -147l4 -3c32 5 55 8 88 8
c144 0 229 -72 229 -190z" />
    <glyph glyph-name="six" unicode="6" horiz-adv-x="517" 
d="M475 215c0 -128 -83 -230 -214 -230c-112 0 -216 76 -216 233c0 101 38 203 121 282c75 71 150 114 260 139l5 -17c-62 -27 -122 -63 -167 -108c-46 -46 -78 -100 -101 -158l5 -1c37 28 84 44 126 44c116 0 181 -91 181 -184zM385 172c0 100 -44 175 -143 175
c-35 0 -58 -6 -86 -18c-9 -26 -17 -70 -17 -111c0 -105 53 -210 134 -210c72 0 112 68 112 164z" />
    <glyph glyph-name="seven" unicode="7" horiz-adv-x="472" 
d="M390 528h-278l-51 -59l-10 3l27 161l9 3l23 -24h350l4 -7l-305 -620h-76l144 244z" />
    <glyph glyph-name="eight" unicode="8" horiz-adv-x="496" 
d="M436 484c0 -59 -42 -115 -129 -154c96 -55 139 -104 139 -167c0 -109 -84 -178 -203 -178c-118 0 -188 65 -188 143c0 74 60 133 134 162c-75 47 -119 95 -119 171c0 97 93 167 188 167c117 0 178 -69 178 -144zM156 502c0 -69 37 -108 132 -161c44 49 63 96 63 151
c0 59 -33 112 -96 112c-57 0 -99 -40 -99 -102zM358 118c0 63 -52 113 -153 162c-39 -35 -64 -75 -64 -140c0 -72 47 -132 122 -132c54 0 95 43 95 110z" />
    <glyph glyph-name="nine" unicode="9" horiz-adv-x="516" 
d="M471 394c0 -101 -37 -203 -120 -282c-75 -71 -150 -114 -269 -138l-5 16c71 27 131 63 176 108c46 46 81 110 104 168l-5 1c-33 -28 -76 -44 -118 -44c-107 0 -192 72 -192 182c0 121 83 223 214 223c127 0 215 -89 215 -234zM377 395c0 113 -53 209 -128 209
c-72 0 -115 -67 -115 -163c0 -100 48 -166 147 -166c35 0 53 6 82 18c8 26 14 60 14 102z" />
    <glyph glyph-name="colon" unicode=":" horiz-adv-x="211" 
d="M165 341c0 -33 -27 -60 -60 -60s-60 27 -60 60s27 60 60 60s60 -27 60 -60zM165 44c0 -33 -27 -60 -60 -60s-60 27 -60 60s27 60 60 60s60 -27 60 -60z" />
    <glyph glyph-name="semicolon" unicode=";" horiz-adv-x="232" 
d="M184 341c0 -33 -27 -60 -60 -60s-60 27 -60 60s27 60 60 60s60 -27 60 -60zM184 21c0 -50 -38 -105 -120 -145l-10 12c56 47 75 80 83 109l-2 1l-17 -4c-5 -2 -10 -2 -15 -2c-28 0 -48 22 -48 51c0 33 26 61 60 61c43 0 69 -34 69 -83z" />
    <glyph glyph-name="less" unicode="&#x3c;" horiz-adv-x="505" 
d="M430 156l-10 -44l-350 181v27l350 181l10 -44l-298 -151z" />
    <glyph glyph-name="equal" unicode="=" horiz-adv-x="505" 
d="M464 414v-44h-423v44h423zM464 198h-423v44h423v-44z" />
    <glyph glyph-name="greater" unicode="&#x3e;" horiz-adv-x="505" 
d="M75 457l10 44l350 -181v-27l-350 -181l-10 44l298 151z" />
    <glyph glyph-name="question" unicode="?" horiz-adv-x="393" 
d="M369 489c0 -65 -38 -107 -120 -148c-67 -33 -90 -50 -90 -85c0 -31 25 -52 61 -52c21 0 41 4 55 7l5 -11c-16 -16 -49 -27 -80 -27c-61 0 -117 37 -117 96c0 56 34 91 108 133c65 36 100 68 100 126c0 55 -36 100 -98 100c-24 0 -44 -7 -58 -22c10 -17 14 -35 14 -50
c0 -33 -22 -58 -55 -58c-31 0 -57 25 -57 60c0 55 64 94 150 94c107 0 182 -76 182 -163zM238 45c0 -33 -27 -60 -60 -60s-60 27 -60 60s27 60 60 60s60 -27 60 -60z" />
    <glyph glyph-name="at" unicode="@" horiz-adv-x="820" 
d="M722 285c0 144 -111 288 -302 288c-180 0 -313 -142 -313 -366c0 -180 125 -319 339 -319c91 0 162 20 227 52l6 -8c-64 -55 -159 -92 -262 -92c-201 0 -380 130 -380 374c0 211 182 396 415 396c205 0 331 -153 331 -308c0 -154 -112 -279 -233 -279
c-59 0 -91 33 -91 69l-3 2c-30 -36 -70 -63 -113 -63c-53 0 -102 47 -102 138c0 123 108 257 242 257c22 0 38 -4 62 -17l34 29l5 -3l-57 -308c-7 -37 -2 -76 40 -76c95 0 155 92 155 234zM503 348c-20 23 -46 41 -78 41c-56 0 -114 -88 -114 -202c0 -63 27 -108 78 -108
c31 0 53 17 74 36z" />
    <glyph glyph-name="A" unicode="A" horiz-adv-x="629" 
d="M563 40l81 -23v-17h-285v17l99 18l-74 199h-219l-72 -193l72 -24v-17h-181v17l71 27l230 599h47zM371 267l-96 258h-2l-96 -258h194z" />
    <glyph glyph-name="B" unicode="B" horiz-adv-x="626" 
d="M584 183c0 -98 -83 -183 -227 -183h-322v17l100 18v567l-100 18v17h296c139 0 211 -63 211 -143c0 -67 -44 -128 -144 -149v-5c127 -14 186 -84 186 -157zM235 346h82c76 0 121 49 121 136c0 95 -64 129 -128 129c-28 0 -56 -2 -75 -6v-259zM470 175
c0 85 -46 143 -157 143h-78v-285c19 -4 53 -7 82 -7c106 0 153 57 153 149z" />
    <glyph glyph-name="C" unicode="C" horiz-adv-x="655" 
d="M607 170l-19 -132c-64 -34 -116 -53 -207 -53c-201 0 -341 130 -341 327c0 185 145 340 343 340c51 0 109 -11 147 -31l43 34h11l8 -214l-16 -2c-67 134 -134 184 -234 184c-88 0 -186 -86 -186 -294c0 -204 114 -310 251 -310c30 0 55 4 78 14l113 141z" />
    <glyph glyph-name="D" unicode="D" horiz-adv-x="731" 
d="M135 602l-99 18v17h307c218 0 348 -138 348 -318c0 -181 -145 -319 -354 -319h-301v17l99 18v567zM576 319c0 207 -111 285 -253 285h-88v-571h110c134 0 231 78 231 286z" />
    <glyph glyph-name="E" unicode="E" horiz-adv-x="641" 
d="M537 637l24 -171l-9 -7l-77 85c-36 39 -49 60 -111 60h-129v-269h53c60 0 83 24 101 94l9 33h15v-281h-15l-9 31c-18 70 -41 95 -101 95h-53v-273h175c59 0 72 16 100 53l87 112l10 -4l-27 -195h-544v17l99 18v567l-99 18v17h501z" />
    <glyph glyph-name="F" unicode="F" horiz-adv-x="585" 
d="M562 466l-10 -7l-77 85c-35 39 -48 60 -111 60h-128v-273h59c60 0 83 25 101 95l9 33h15v-281h-15l-9 31c-18 70 -41 94 -101 94h-59v-268l105 -18v-17h-305v17l99 18v567l-99 18v17h502z" />
    <glyph glyph-name="G" unicode="G" horiz-adv-x="686" 
d="M588 441l-16 -2c-66 132 -136 184 -224 184c-96 0 -193 -86 -193 -294c0 -204 99 -304 236 -304c43 0 82 13 114 29v184l-86 18v17h259v-17l-73 -18v-246l-10 -4l-74 48c-47 -31 -103 -51 -169 -51c-182 0 -312 134 -312 327c0 185 145 340 342 340c51 0 106 -11 144 -31
l44 34h11z" />
    <glyph glyph-name="H" unicode="H" horiz-adv-x="814" 
d="M579 347v255l-99 18v17h298v-17l-99 -18v-567l99 -18v-17h-298v17l99 18v279h-344v-279l99 -18v-17h-298v17l99 18v567l-99 18v17h298v-17l-99 -18v-255h344z" />
    <glyph glyph-name="I" unicode="I" horiz-adv-x="400" 
d="M250 35l102 -18v-17h-305v17l103 18v567l-103 18v17h305v-17l-102 -18v-567z" />
    <glyph glyph-name="J" unicode="J" horiz-adv-x="498" 
d="M375 220c0 -83 -10 -131 -52 -176c-34 -36 -86 -62 -163 -62c-103 0 -137 45 -137 87c0 36 31 60 63 60c44 0 74 -46 74 -123c104 21 114 81 114 175v421l-102 18v17h302v-17l-99 -18v-382z" />
    <glyph glyph-name="K" unicode="K" horiz-adv-x="690" 
d="M364 363l251 -317l84 -29v-17h-271v17l68 24l-203 270h-58v-276l100 -18v-17h-299v17l99 18v567l-99 18v17h299v-17l-100 -18v-258h68l221 245l-75 31v17h217v-17l-90 -36z" />
    <glyph glyph-name="L" unicode="L" horiz-adv-x="610" 
d="M582 195l-26 -195h-520v17l99 18v567l-99 18v17h299v-17l-99 -18v-568h150c59 0 72 16 100 53l87 112z" />
    <glyph glyph-name="M" unicode="M" horiz-adv-x="914" 
d="M779 35l99 -18v-17h-298v17l99 18v551h-7l-234 -586h-24l-244 586h-7v-542l79 -27v-17h-191v17l79 27v556l-79 20v17h210l39 -103l160 -395h5l156 395l37 103h220v-17l-99 -18v-567z" />
    <glyph glyph-name="N" unicode="N" horiz-adv-x="745" 
d="M130 44v550l-79 26v17h188l75 -102l266 -351h6v409l-79 27v17h192v-17l-79 -27v-599h-28l-75 102l-347 456h-7v-508l79 -27v-17h-191v17z" />
    <glyph glyph-name="O" unicode="O" horiz-adv-x="706" 
d="M664 319c0 -181 -123 -334 -315 -334c-201 0 -309 153 -309 334c0 180 123 333 315 333c201 0 309 -153 309 -333zM549 319c0 208 -108 310 -208 310c-92 0 -186 -76 -186 -310s108 -311 208 -311c92 0 186 102 186 311z" />
    <glyph glyph-name="P" unicode="P" horiz-adv-x="592" 
d="M554 462c0 -89 -69 -185 -214 -185c-33 0 -73 4 -105 9v-251l99 -18v-17h-298v17l99 18v567l-99 18v17h289c153 0 229 -77 229 -175zM442 459c0 95 -49 152 -138 152c-25 0 -49 -2 -69 -6v-295c18 -3 37 -5 67 -5c92 0 140 50 140 154z" />
    <glyph glyph-name="Q" unicode="Q" horiz-adv-x="706" 
d="M664 319c0 -163 -100 -304 -261 -330c42 -67 80 -111 116 -135c37 -26 76 -40 119 -48l-2 -15h-77c-72 0 -118 7 -152 32c-20 15 -37 38 -70 94l-42 72c-166 25 -255 166 -255 330c0 180 123 333 315 333c201 0 309 -153 309 -333zM549 319c0 208 -108 310 -208 310
c-92 0 -186 -76 -186 -310s108 -311 208 -311c92 0 186 102 186 311z" />
    <glyph glyph-name="R" unicode="R" horiz-adv-x="658" 
d="M567 474c0 -76 -66 -136 -180 -159v-5c53 -17 91 -63 113 -108c33 -64 59 -120 88 -145c31 -25 48 -34 89 -40v-17h-116c-78 0 -91 30 -127 106l-55 115c-33 67 -61 77 -106 77h-38v-263l99 -18v-17h-298v17l99 18v567l-99 18v17h290c152 0 241 -65 241 -163zM455 469
c0 95 -70 142 -151 142c-28 0 -49 -2 -69 -6v-279h69c81 0 151 48 151 143z" />
    <glyph glyph-name="S" unicode="S" horiz-adv-x="525" 
d="M474 192c0 -139 -118 -207 -210 -207c-51 0 -109 12 -147 31l-40 -34h-15l-12 219l16 2c65 -149 132 -189 203 -189c73 0 124 48 124 123c0 61 -24 92 -121 133c-33 13 -67 26 -98 41c-71 35 -102 83 -102 157c0 127 105 184 197 184c42 0 75 -12 106 -31l41 34h14
l17 -192l-16 -2c-57 114 -113 162 -180 162c-55 0 -98 -41 -98 -108c0 -48 21 -85 93 -116c35 -16 74 -30 111 -48c81 -39 117 -86 117 -159z" />
    <glyph glyph-name="T" unicode="T" horiz-adv-x="665" 
d="M644 457l-11 -6l-61 77c-48 60 -65 76 -117 76h-67v-569l106 -18v-17h-312v17l106 18v569h-74c-51 0 -69 -16 -117 -76l-61 -77l-10 6l35 180h547z" />
    <glyph glyph-name="U" unicode="U" horiz-adv-x="736" 
d="M592 593l-79 27v17h191v-17l-79 -27v-388c0 -128 -105 -222 -246 -222c-159 0 -254 71 -254 219v400l-99 18v17h300v-17l-99 -18v-379c0 -141 65 -191 195 -191c120 0 170 89 170 195v366z" />
    <glyph glyph-name="V" unicode="V" horiz-adv-x="670" 
d="M598 592l-236 -598h-34l-238 603l-88 23v17h292v-17l-99 -18l182 -484l182 474l-71 28v17h183v-17z" />
    <glyph glyph-name="W" unicode="W" horiz-adv-x="954" 
d="M548 602l152 -475h2l138 465l-71 28v17h183v-17l-73 -28l-192 -598h-34l-164 477h-2l-174 -477h-35l-188 603l-88 23v17h286v-17l-93 -18l134 -473h2l138 399l-23 69l-82 23v17h277v-17z" />
    <glyph glyph-name="X" unicode="X" horiz-adv-x="715" 
d="M584 593l-185 -245c0 1 210 -308 210 -308l88 -23v-17h-292v17l87 18s-151 241 -152 241l-163 -235l73 -24v-17h-211v17l82 27l197 261l-197 292l-88 23v17h292v-17l-87 -18l139 -223l151 217l-73 24v17h211v-17z" />
    <glyph glyph-name="Y" unicode="Y" horiz-adv-x="633" 
d="M566 593l-188 -301v-257l102 -18v-17h-304v17l102 18v240l-192 322l-88 23v17h292v-17l-86 -18l151 -285l158 279l-73 24v17h205v-17z" />
    <glyph glyph-name="Z" unicode="Z" horiz-adv-x="638" 
d="M594 195l-26 -195h-526l-4 10l408 594h-179c-62 0 -75 -21 -111 -60l-77 -85l-9 7l24 171h483l4 -10l-408 -593h225c59 0 72 16 100 53l87 112z" />
    <glyph glyph-name="bracketleft" unicode="[" horiz-adv-x="303" 
d="M340 715h-170v-865h170v-26h-252v917h252v-26z" />
    <glyph glyph-name="backslash" unicode="\" horiz-adv-x="385" 
d="M23 741l200 -470l206 -466l-33 -15l-200 470l-206 467z" />
    <glyph glyph-name="bracketright" unicode="]" horiz-adv-x="303" 
d="M133 715h-170v26h252v-917h-252v26h170v865z" />
    <glyph glyph-name="asciicircum" unicode="^" horiz-adv-x="299" 
d="M150 604l-113 -99l-12 10l121 177h15l113 -177l-12 -10z" />
    <glyph glyph-name="underscore" unicode="_" horiz-adv-x="440" 
d="M440 33v-33h-440v33h440z" />
    <glyph glyph-name="grave" unicode="`" horiz-adv-x="238" 
d="M170 518l-13 -8c-44 50 -100 102 -117 128c-15 22 -13 46 5 58c18 11 42 2 55 -19c17 -26 41 -98 70 -159z" />
    <glyph glyph-name="a" unicode="a" horiz-adv-x="468" 
d="M388 326v-269c0 -29 24 -38 84 -32l2 -11c-19 -13 -69 -30 -105 -30c-38 0 -58 21 -61 74l-4 2c-46 -46 -97 -76 -151 -76c-65 0 -107 38 -107 99c0 90 107 139 258 159v75c0 67 -43 102 -103 102c-22 0 -48 -5 -74 -15c22 -18 31 -39 31 -58c0 -25 -19 -48 -47 -48
c-30 0 -48 23 -48 49c0 63 104 116 199 116c88 0 126 -47 126 -137zM304 74v139c-128 0 -170 -46 -170 -100c0 -43 28 -69 72 -69c27 0 61 10 98 30z" />
    <glyph glyph-name="b" unicode="b" horiz-adv-x="527" 
d="M489 231c0 -130 -104 -247 -258 -247c-52 0 -120 17 -159 37v628l-73 43v10l154 39l4 -2v-339l4 -2c33 35 81 66 145 66c89 0 183 -85 183 -233zM400 215c0 123 -59 186 -153 186c-39 0 -67 -9 -90 -23v-314c35 -31 83 -48 126 -48c64 0 117 56 117 199z" />
    <glyph glyph-name="c" unicode="c" horiz-adv-x="454" 
d="M419 374c0 -34 -23 -60 -54 -60c-36 0 -57 30 -57 60c0 22 9 44 22 59c-14 3 -25 4 -42 4c-84 0 -163 -59 -163 -202c0 -106 57 -189 159 -189c49 0 94 14 141 37l5 -13c-47 -51 -111 -86 -175 -86c-129 0 -220 93 -220 232s103 248 246 248c83 0 138 -40 138 -90z" />
    <glyph glyph-name="d" unicode="d" horiz-adv-x="527" 
d="M449 56l66 -26v-10l-135 -37l-5 2l-8 66l-4 2l-25 -22c-29 -27 -65 -47 -118 -47c-92 0 -182 78 -182 226c0 130 84 254 251 254c31 0 52 -2 76 -7v192l-73 43v10l153 39l4 -2v-683zM127 227c0 -110 59 -185 144 -185c38 0 70 13 94 38v299c-25 37 -60 61 -107 61
c-64 0 -131 -63 -131 -213z" />
    <glyph glyph-name="e" unicode="e" horiz-adv-x="479" 
d="M442 270h-316c0 -133 45 -224 158 -224c49 0 90 11 147 40l6 -12c-62 -59 -118 -90 -183 -90c-128 0 -219 94 -219 233c0 141 97 247 221 247s186 -83 186 -194zM127 291l219 7c-7 86 -35 144 -97 144c-64 0 -116 -60 -122 -151z" />
    <glyph glyph-name="f" unicode="f" horiz-adv-x="320" 
d="M324 402h-124v-371l81 -18v-13h-232v13l66 18v371h-90v17l90 26v48c0 98 27 155 78 199c36 32 80 48 126 48c53 0 81 -25 81 -56s-20 -51 -50 -51c-31 0 -59 20 -89 73c-42 -25 -61 -77 -61 -175v-89h124v-40z" />
    <glyph glyph-name="g" unicode="g" horiz-adv-x="499" 
d="M415 319c0 -97 -74 -164 -180 -164c-29 0 -56 7 -76 16c-15 -14 -22 -43 -22 -64c0 -30 22 -39 73 -40l123 -2c103 -2 144 -38 144 -107c0 -79 -87 -168 -255 -168c-130 0 -200 52 -200 110c0 42 42 82 106 103l-1 5c-40 13 -63 39 -63 70c0 30 24 66 78 98v5
c-51 25 -84 65 -84 127c0 96 85 155 187 155c46 0 87 -12 116 -33c48 31 84 45 115 45c33 0 50 -20 50 -45s-20 -47 -45 -47s-42 16 -45 41l-58 -7l-2 -5c26 -26 39 -58 39 -93zM325 308c0 76 -33 135 -93 135c-54 0 -84 -41 -84 -135c0 -99 32 -133 93 -133
c53 0 84 56 84 133zM408 -80c0 47 -29 73 -93 75l-166 2c-26 -17 -43 -49 -43 -84c0 -53 52 -96 152 -96c95 0 150 52 150 103z" />
    <glyph glyph-name="h" unicode="h" horiz-adv-x="568" 
d="M401 282c0 76 -37 112 -103 112c-42 0 -75 -8 -115 -31v-332l62 -18v-13h-213v13l66 18v618l-73 43v10l154 39l4 -2v-354l4 -2c59 56 114 81 168 81c90 0 130 -68 130 -139v-294l66 -18v-13h-213v13l63 18v251z" />
    <glyph glyph-name="i" unicode="i" horiz-adv-x="281" 
d="M91 611c0 31 26 60 59 60c31 0 54 -23 54 -54c0 -32 -26 -61 -60 -61c-31 0 -53 23 -53 55zM105 378l-66 42v9l146 36l4 -3v-431l67 -18v-13h-221v13l70 18v347z" />
    <glyph glyph-name="j" unicode="j" horiz-adv-x="268" 
d="M88 611c0 31 26 60 59 60c31 0 54 -23 54 -54c0 -32 -26 -61 -60 -61c-31 0 -53 23 -53 55zM190 1c0 -81 -18 -121 -51 -159c-32 -38 -75 -52 -118 -52s-71 30 -71 57c0 31 21 49 48 49c32 0 57 -30 63 -78c32 18 44 43 44 104v456l-66 42v9l147 36l4 -3v-461z" />
    <glyph glyph-name="k" unicode="k" horiz-adv-x="519" 
d="M279 263l175 -229l56 -21v-13h-196v13l40 21l-131 184h-40v-187l56 -18v-13h-211v13l70 18v618l-73 43v10l154 39l4 -2v-491h45l131 155l-53 35v10h184v-13l-67 -26z" />
    <glyph glyph-name="l" unicode="l" horiz-adv-x="269" 
d="M183 31l66 -18v-13h-221v13l70 18v618l-73 43v10l154 39l4 -2v-708z" />
    <glyph glyph-name="m" unicode="m" horiz-adv-x="832" 
d="M665 282c0 76 -26 112 -92 112c-42 0 -67 -14 -107 -37v-326l66 -18v-13h-213v13l62 18v257c0 77 -26 106 -92 106c-42 0 -64 -8 -104 -31v-332l62 -18v-13h-213v13l66 18v347l-65 42v9l140 36l4 -3l-2 -80l4 -2c59 56 109 84 163 84c65 0 99 -42 113 -88l5 -2
c59 56 112 91 166 91c90 0 121 -69 121 -140v-294l67 -18v-13h-214v13l63 18v251z" />
    <glyph glyph-name="n" unicode="n" horiz-adv-x="558" 
d="M475 325v-294l66 -18v-13h-213v13l63 18v251c0 76 -27 112 -94 112c-42 0 -72 -8 -112 -31v-332l62 -18v-13h-213v13l66 18v347l-65 42v9l140 36l4 -3l-2 -80l4 -2c60 56 117 84 171 84c90 0 123 -68 123 -139z" />
    <glyph glyph-name="o" unicode="o" horiz-adv-x="519" 
d="M484 227c0 -128 -84 -243 -231 -243c-141 0 -218 103 -218 240c0 128 86 240 232 240c143 0 217 -100 217 -237zM387 227c0 146 -56 215 -131 215c-69 0 -124 -71 -124 -221c0 -146 61 -215 131 -215c74 0 124 71 124 221z" />
    <glyph glyph-name="p" unicode="p" horiz-adv-x="550" 
d="M512 237c0 -130 -93 -253 -244 -253c-32 0 -60 4 -88 11v-168l76 -24v-13h-227v13l66 24v551l-65 42v9l140 36l4 -3l-2 -80l4 -2c50 53 98 84 157 84c101 0 179 -88 179 -227zM423 217c0 110 -53 184 -145 184c-33 0 -73 -17 -98 -35v-308c35 -31 70 -48 114 -48
c64 0 129 64 129 207z" />
    <glyph glyph-name="q" unicode="q" horiz-adv-x="515" 
d="M515 -210h-227v13l76 24v218l-4 3l-29 -23c-32 -25 -63 -41 -109 -41c-92 0 -184 76 -184 225c0 130 86 255 244 255c43 0 83 -12 115 -23l43 43l9 -2v-655l66 -24v-13zM271 39c38 0 70 13 94 38v302c-25 37 -60 61 -108 61c-63 0 -130 -63 -130 -213
c0 -110 59 -188 144 -188z" />
    <glyph glyph-name="r" unicode="r" horiz-adv-x="394" 
d="M379 406c0 -32 -21 -54 -51 -54c-27 0 -49 21 -54 53c-37 -3 -75 -32 -89 -65v-309l69 -18v-13h-220v13l66 18v347l-65 42v9l140 36l4 -3l-2 -98l4 -3c32 62 85 103 131 103c45 0 67 -28 67 -58z" />
    <glyph glyph-name="s" unicode="s" horiz-adv-x="390" 
d="M353 137c0 -93 -75 -152 -173 -152c-50 0 -91 7 -137 27v126l21 2c33 -92 79 -130 133 -130c53 0 87 31 87 84c0 54 -53 75 -109 98c-61 26 -125 55 -125 133c0 79 61 140 157 140c39 0 91 -9 118 -19l3 -113l-18 -5c-39 80 -77 112 -121 112c-45 0 -75 -26 -75 -68
c0 -54 54 -75 111 -99c62 -26 128 -55 128 -136z" />
    <glyph glyph-name="t" unicode="t" horiz-adv-x="331" 
d="M328 38c-44 -27 -94 -46 -141 -46c-76 0 -98 34 -98 105v306h-70v13l78 52l59 91h17v-113h152v-43h-152v-272c0 -36 3 -59 24 -73c14 -8 39 -12 74 -12c16 0 35 1 56 2z" />
    <glyph glyph-name="u" unicode="u" horiz-adv-x="544" 
d="M463 56l66 -26v-10l-140 -35l-4 2l2 79l-4 2c-60 -56 -117 -84 -171 -84c-90 0 -123 68 -123 139v262l-65 35v9l146 36l4 -3v-296c0 -77 27 -113 93 -113c42 0 72 9 112 32v300l-66 35v9l146 36l4 -3v-406z" />
    <glyph glyph-name="v" unicode="v" horiz-adv-x="495" 
d="M162 414l120 -311h4l51 131l61 172l-64 29v13h176v-13l-73 -31l-170 -415h-24l-178 425l-62 21v13h229v-13z" />
    <glyph glyph-name="w" unicode="w" horiz-adv-x="702" 
d="M411 414l91 -302h5l105 294l-63 29v13h176v-13l-73 -31l-164 -415h-24l-99 293l-133 -293h-25l-156 425l-61 21v13h225v-13l-67 -21l101 -302h5s95 216 95 215c1 0 -29 87 -29 87l-55 21v13h213v-13z" />
    <glyph glyph-name="x" unicode="x" horiz-adv-x="516" 
d="M276 270l98 138l-51 27v13h170v-13l-73 -31l-128 -159l152 -211l61 -21v-13h-232v13l64 21l-95 148l-99 -142l50 -27v-13h-169v13l73 30l128 163c0 1 -146 208 -146 208l-62 21v13h232v-13l-64 -21z" />
    <glyph glyph-name="y" unicode="y" horiz-adv-x="490" 
d="M431 404l-197 -492c-33 -82 -75 -122 -131 -122c-47 0 -67 29 -67 56s23 48 51 48c31 0 49 -19 70 -47c19 18 37 45 52 78l29 66l-174 423l-61 21v13h228v-13l-70 -21l117 -311h5l108 303l-63 29v13h171v-13z" />
    <glyph glyph-name="z" unicode="z" horiz-adv-x="464" 
d="M429 441l-283 -413h164l105 112l12 -6l-16 -134h-380l-3 7l282 413h-150l-97 -112l-11 6l12 134h362z" />
    <glyph glyph-name="braceleft" unicode="{" horiz-adv-x="333" 
d="M229 470c0 -141 -50 -167 -141 -184v-2c91 -16 141 -43 141 -183v-130c0 -91 26 -114 112 -128v-19c-121 6 -196 31 -196 173v137c0 98 -36 132 -134 143v16c98 12 134 46 134 144v131c0 141 75 167 196 173v-20c-86 -14 -112 -36 -112 -128v-123z" />
    <glyph glyph-name="bar" unicode="|" horiz-adv-x="268" 
d="M152 -241h-36l3 471l-3 471h36l-3 -471z" />
    <glyph glyph-name="braceright" unicode="}" horiz-adv-x="333" 
d="M189 437c0 -98 36 -132 133 -144v-16c-97 -11 -133 -45 -133 -143v-137c0 -142 -75 -167 -197 -173v19c86 14 113 37 113 128v130c0 140 50 167 141 183v2c-91 17 -141 43 -141 184v123c0 92 -27 114 -113 128v20c122 -6 197 -32 197 -173v-131z" />
    <glyph glyph-name="asciitilde" unicode="~" horiz-adv-x="361" 
d="M121 368c50 0 99 -35 137 -35c20 0 38 11 50 42l13 -6c-11 -74 -40 -99 -80 -99c-50 0 -99 35 -138 35c-20 0 -37 -11 -50 -41l-13 5c12 74 41 99 81 99z" />
    <glyph glyph-name="quotesinglbase" horiz-adv-x="220" 
d="M176 21c0 -50 -38 -104 -120 -145l-10 12c56 48 75 80 83 109l-2 1l-17 -4c-5 -2 -10 -2 -15 -2c-28 0 -48 22 -48 51c0 33 26 61 60 61c43 0 69 -34 69 -83z" />
    <glyph glyph-name="florin" horiz-adv-x="485" 
d="M484 568c0 -25 -20 -47 -51 -47c-34 0 -74 26 -88 82c-46 -32 -74 -91 -93 -230l-4 -30h113l-7 -40h-112l-27 -183c-20 -147 -39 -198 -96 -258c-29 -30 -73 -47 -110 -47c-52 0 -80 23 -80 52c0 26 20 47 53 47c32 0 68 -21 88 -64c25 33 36 80 47 157l42 296h-103l3 17
l107 29l2 21c19 110 42 164 106 215c36 29 81 43 120 43c50 0 90 -23 90 -60z" />
    <glyph glyph-name="quotedblbase" horiz-adv-x="372" 
d="M329 26c0 -48 -37 -100 -114 -139l-10 12c53 45 71 76 79 104l-2 1l-16 -5c-5 -1 -10 -2 -14 -2c-27 0 -46 22 -46 49c0 31 25 58 57 58c41 0 66 -32 66 -78zM170 26c0 -48 -36 -100 -114 -139l-9 12c53 45 71 76 79 104l-2 1l-16 -5c-5 -1 -10 -2 -15 -2
c-26 0 -46 22 -46 49c0 31 25 58 58 58c40 0 65 -32 65 -78z" />
    <glyph glyph-name="ellipsis" unicode="&#x85;" horiz-adv-x="633" 
d="M588 44c0 -33 -27 -60 -60 -60c-34 0 -61 27 -61 60s27 60 61 60c33 0 60 -27 60 -60zM377 44c0 -33 -27 -60 -60 -60c-34 0 -61 27 -61 60s27 60 61 60c33 0 60 -27 60 -60zM166 44c0 -33 -27 -60 -60 -60c-34 0 -61 27 -61 60s27 60 61 60c33 0 60 -27 60 -60z" />
    <glyph glyph-name="dagger" horiz-adv-x="454" 
d="M424 400l-182 4l4 -487h-38l4 487l-182 -4v35l182 -4l-4 239h38l-4 -239l182 4v-35z" />
    <glyph glyph-name="daggerdbl" horiz-adv-x="454" 
d="M424 152l-182 4l4 -239h-38l4 239l-182 -4v35l182 -4v221l-182 -4v35l182 -4l-4 239h38l-4 -239l182 4v-35l-182 4v-221l182 4v-35z" />
    <glyph glyph-name="circumflex" horiz-adv-x="299" 
d="M150 604l-113 -99l-12 10l121 177h15l113 -177l-12 -10z" />
    <glyph glyph-name="perthousand" horiz-adv-x="734" 
d="M701 319c0 -185 -150 -334 -334 -334s-334 149 -334 334c0 184 150 333 334 333s334 -149 334 -333zM676 319c0 171 -138 310 -309 310c-170 0 -309 -139 -309 -310c0 -172 139 -311 309 -311c171 0 309 139 309 311zM513 403c0 -41 -32 -75 -98 -87v-2
c38 -8 59 -32 70 -61c14 -33 25 -55 39 -69c13 -12 22 -16 39 -18v-16h-63c-41 0 -51 16 -69 58l-25 57c-15 33 -31 37 -60 37h-13v-125l49 -11v-16h-164v16l49 11v284l-49 11v15h176c78 0 119 -38 119 -84zM442 396c0 48 -33 71 -74 71c-8 0 -30 0 -35 -1v-145l35 1
c41 1 74 25 74 74z" />
    <glyph glyph-name="Scaron" horiz-adv-x="525" 
d="M267 791l112 100l12 -10l-120 -177h-15l-114 177l12 10zM474 192c0 -139 -118 -207 -210 -207c-51 0 -109 12 -147 31l-40 -34h-15l-12 219l16 2c65 -149 132 -189 203 -189c73 0 124 48 124 123c0 61 -24 92 -121 133c-33 13 -67 26 -98 41c-71 35 -102 83 -102 157
c0 127 105 184 197 184c42 0 75 -12 106 -31l41 34h14l17 -192l-16 -2c-57 114 -113 162 -180 162c-55 0 -98 -41 -98 -108c0 -48 21 -85 93 -116c35 -16 74 -30 111 -48c81 -39 117 -86 117 -159z" />
    <glyph glyph-name="guilsinglleft" horiz-adv-x="294" 
d="M125 224l119 -179l-18 -15l-196 189v10l196 189l18 -16z" />
    <glyph glyph-name="OE" horiz-adv-x="1002" 
d="M968 195l-27 -195h-553c-218 0 -348 138 -348 319c0 180 145 318 354 318h505l24 -171l-10 -7l-77 85c-36 39 -49 60 -111 60h-129v-269h53c61 0 83 24 102 94l9 33h15v-281h-16l-8 31c-19 70 -41 95 -102 95h-53v-273h176c59 0 72 16 100 53l87 112zM155 319
c0 -208 111 -286 254 -286h87v571h-110c-134 0 -231 -78 -231 -285z" />
    <glyph glyph-name="quoteleft" horiz-adv-x="220" 
d="M173 492c0 -33 -26 -61 -60 -61c-43 0 -70 34 -70 83c0 50 39 105 120 145l10 -12c-55 -47 -74 -80 -83 -109l2 -1l17 4c5 2 10 2 15 2c29 0 49 -22 49 -51z" />
    <glyph glyph-name="quoteright" horiz-adv-x="220" 
d="M176 569c0 -50 -38 -104 -120 -145l-10 12c56 48 75 80 83 109l-2 1l-17 -4c-5 -2 -10 -2 -15 -2c-28 0 -48 22 -48 51c0 33 26 61 60 61c43 0 69 -34 69 -83z" />
    <glyph glyph-name="quotedblleft" horiz-adv-x="371" 
d="M324 501c0 -32 -25 -59 -57 -59c-41 0 -66 33 -66 79c0 48 37 100 114 138l10 -11c-53 -45 -71 -76 -79 -104l2 -1l16 4c5 2 10 2 14 2c27 0 46 -21 46 -48zM166 501c0 -32 -25 -59 -57 -59c-41 0 -66 33 -66 79c0 48 37 100 114 138l9 -11c-53 -45 -71 -76 -78 -104
l1 -1l16 4c5 2 10 2 15 2c27 0 46 -21 46 -48z" />
    <glyph glyph-name="quotedblright" horiz-adv-x="372" 
d="M329 574c0 -48 -37 -100 -114 -139l-10 12c53 45 71 76 79 104l-2 1l-16 -5c-5 -1 -10 -2 -14 -2c-27 0 -46 22 -46 49c0 31 25 58 57 58c41 0 66 -32 66 -78zM170 574c0 -48 -36 -100 -114 -139l-9 12c53 45 71 76 79 104l-2 1l-16 -5c-5 -1 -10 -2 -15 -2
c-26 0 -46 22 -46 49c0 31 25 58 58 58c40 0 65 -32 65 -78z" />
    <glyph glyph-name="bullet" horiz-adv-x="470" 
d="M369 319c0 -75 -60 -135 -135 -135c-74 0 -134 60 -134 135c0 74 60 134 134 134c75 0 135 -60 135 -134z" />
    <glyph glyph-name="endash" horiz-adv-x="540" 
d="M490 230h-440v33h440v-33z" />
    <glyph glyph-name="emdash" horiz-adv-x="790" 
d="M740 230h-690v33h690v-33z" />
    <glyph glyph-name="tilde" horiz-adv-x="331" 
d="M25 532c12 74 41 99 81 99c50 0 99 -35 137 -35c20 0 38 11 50 42l13 -6c-11 -74 -40 -99 -80 -99c-50 0 -99 35 -138 35c-20 0 -37 -11 -50 -41z" />
    <glyph glyph-name="trademark" horiz-adv-x="510" 
d="M457 619v-142l26 -9v-9h-91v9l24 9v137h-3l-60 -155h-20l-62 155h-4v-135l23 -11v-9h-65v9l22 11v139l-22 10v9h80l12 -31l36 -93h3l34 93l11 31h82v-9zM206 575l-7 -1l-21 27c-12 16 -17 20 -31 20h-11v-144l26 -9v-9h-94v9l27 9v144h-13c-14 0 -19 -4 -31 -20l-21 -27
l-7 1l9 62h165z" />
    <glyph glyph-name="scaron" horiz-adv-x="390" 
d="M201 605l112 100l12 -10l-120 -177h-15l-114 177l12 10zM353 137c0 -93 -75 -152 -173 -152c-50 0 -91 7 -137 27v126l21 2c33 -92 79 -130 133 -130c53 0 87 31 87 84c0 54 -53 75 -109 98c-61 26 -125 55 -125 133c0 79 61 140 157 140c39 0 91 -9 118 -19l3 -113
l-18 -5c-39 80 -77 112 -121 112c-45 0 -75 -26 -75 -68c0 -54 54 -75 111 -99c62 -26 128 -55 128 -136z" />
    <glyph glyph-name="guilsinglright" horiz-adv-x="294" 
d="M264 229v-10l-196 -189l-18 15l119 179l-119 178l18 16z" />
    <glyph glyph-name="oe" horiz-adv-x="836" 
d="M483 270c0 -134 46 -223 158 -223c49 0 90 10 147 40l6 -13c-62 -58 -118 -89 -182 -89c-77 0 -140 34 -177 90c-38 -54 -100 -90 -182 -90c-142 0 -218 103 -218 240c0 128 86 239 232 239c83 0 141 -34 176 -89c39 55 100 89 170 89c124 0 186 -82 186 -194h-316z
M484 292l219 7c-7 86 -35 144 -97 144c-64 0 -116 -61 -122 -151zM387 228c0 145 -56 214 -131 214c-69 0 -124 -71 -124 -221c0 -145 61 -214 130 -214c75 0 125 71 125 221z" />
    <glyph glyph-name="Ydieresis" horiz-adv-x="633" 
d="M439 742c-28 0 -48 21 -48 49s23 54 54 54c28 0 48 -21 48 -49s-23 -54 -54 -54zM269 742c-28 0 -48 21 -48 49s23 54 54 54c28 0 48 -21 48 -49s-23 -54 -54 -54zM566 593l-188 -301v-257l102 -18v-17h-304v17l102 18v240l-192 322l-88 23v17h292v-17l-86 -18l151 -285
l158 279l-73 24v17h205v-17z" />
    <glyph glyph-name="exclamdown" unicode="&#xa1;" horiz-adv-x="268" 
d="M194 341c0 -33 -27 -60 -60 -60s-60 27 -60 60s27 60 60 60s60 -27 60 -60zM122 211h22c21 -171 45 -361 45 -414c0 -41 -24 -63 -56 -63c-33 0 -56 22 -56 63c0 53 24 243 45 414z" />
    <glyph glyph-name="cent" unicode="&#xa2;" horiz-adv-x="472" 
d="M258 51c12 -3 25 -4 38 -4c49 0 94 13 140 37l6 -13c-51 -55 -118 -90 -189 -85l-6 -82l-35 4l8 81c-104 20 -180 107 -180 228c0 129 97 232 219 245l6 74l34 -4l-6 -68c97 -2 147 -53 147 -102c0 -43 -23 -66 -55 -66c-59 0 -73 73 -34 119c-12 12 -34 21 -60 23
l-20 -221zM131 236c0 -79 35 -146 95 -174c1 0 15 158 15 158l16 215c-59 -13 -126 -74 -126 -199z" />
    <glyph glyph-name="sterling" unicode="&#xa3;" horiz-adv-x="548" 
d="M419 329v-40h-136c1 -6 1 -13 1 -19c0 -68 -40 -132 -111 -169l1 -7c66 7 173 -10 228 -10c56 0 77 34 91 96l22 -1c-9 -101 -54 -194 -138 -194c-48 0 -143 36 -221 74c-18 -46 -52 -74 -83 -74c-32 0 -48 17 -48 42c0 34 33 65 114 69c34 42 51 87 51 132
c0 20 -4 41 -13 61h-131v40h113c-15 31 -22 61 -22 90c0 118 114 209 230 209c98 0 121 -46 121 -72c0 -32 -23 -58 -56 -58c-36 0 -76 34 -89 100c-72 -16 -106 -74 -106 -143c0 -41 13 -84 36 -126h146z" />
    <glyph glyph-name="currency" unicode="&#xa4;" horiz-adv-x="546" 
d="M74 349h-61v33h67c36 151 154 246 280 246c83 0 138 -40 138 -90c0 -34 -23 -60 -54 -60c-57 0 -76 70 -35 119c-14 3 -25 4 -42 4c-81 0 -167 -65 -189 -219h264v-33h-267c-1 -14 -2 -29 -2 -44c0 -16 1 -32 3 -47h266v-33h-260c27 -116 113 -183 209 -183
c45 0 72 7 112 24l6 -12c-41 -44 -98 -69 -162 -69c-124 0 -248 83 -273 240h-61v33h57c-1 9 -1 19 -1 28c0 22 2 43 5 63z" />
    <glyph glyph-name="yen" unicode="&#xa5;" horiz-adv-x="644" 
d="M104 312h153l-155 260l-82 23v17h283v-17l-87 -18l134 -253l142 247l-73 24v17h204v-17l-78 -27l-163 -256h156v-34h-169v-66h169v-34h-169v-143l103 -18v-17h-302v17l102 18v143h-168v34h168v66h-168v34z" />
    <glyph glyph-name="brokenbar" unicode="&#xa6;" horiz-adv-x="268" 
d="M152 289h-36l3 206l-3 206h36l-3 -206zM152 -241h-36l3 206l-3 206h36l-3 -206z" />
    <glyph glyph-name="section" unicode="&#xa7;" horiz-adv-x="475" 
d="M415 146c0 -138 -99 -244 -213 -244c-90 0 -145 46 -145 97c0 33 25 57 55 57c31 0 52 -23 52 -52c0 -14 -4 -29 -13 -46c15 -18 42 -32 72 -32c58 0 108 44 129 109c-188 124 -292 255 -292 391c0 141 98 245 212 245c90 0 145 -47 145 -97c0 -34 -25 -58 -54 -58
c-32 0 -52 24 -52 52c0 14 3 30 12 47c-15 18 -41 31 -72 31c-59 0 -111 -45 -131 -114c191 -122 295 -252 295 -386zM112 469c0 -128 119 -261 247 -408c3 13 4 28 4 43c0 127 -119 258 -248 402c-2 -12 -3 -24 -3 -37z" />
    <glyph glyph-name="dieresis" unicode="&#xa8;" horiz-adv-x="322" 
d="M243 556c-28 0 -48 21 -48 49s23 54 54 54c28 0 48 -21 48 -49s-23 -54 -54 -54zM73 556c-28 0 -48 21 -48 49s23 54 54 54c28 0 48 -21 48 -49s-23 -54 -54 -54z" />
    <glyph glyph-name="copyright" unicode="&#xa9;" horiz-adv-x="734" 
d="M701 319c0 -185 -150 -334 -334 -334s-334 149 -334 334c0 184 150 333 334 333s334 -149 334 -333zM676 319c0 171 -138 310 -309 310c-170 0 -309 -139 -309 -310c0 -172 139 -311 309 -311c171 0 309 139 309 311zM270 324c0 -103 51 -158 121 -158c16 0 26 1 36 6
l62 79l10 -2l-11 -82c-34 -16 -63 -25 -111 -25c-108 0 -181 68 -181 173c0 98 77 180 183 180c27 0 57 -6 77 -16l18 18h12l6 -121l-14 -1c-31 68 -66 99 -114 99c-46 0 -94 -40 -94 -150z" />
    <glyph glyph-name="ordfeminine" unicode="&#xaa;" horiz-adv-x="396" 
d="M67 567c0 48 81 85 149 85c64 0 94 -33 94 -96v-183c0 -21 16 -30 58 -28l2 -10c-17 -9 -51 -19 -77 -19c-28 0 -46 13 -48 49l-4 1c-31 -30 -67 -50 -106 -50c-49 0 -80 27 -80 70c0 64 76 98 186 108v56c0 45 -27 69 -75 69c-14 0 -31 -3 -49 -9c17 -13 25 -30 25 -44
c0 -19 -15 -36 -37 -36c-24 0 -38 18 -38 37zM126 407c0 -31 21 -49 51 -49c19 0 40 8 64 21v95c-86 -2 -115 -29 -115 -67z" />
    <glyph glyph-name="guillemotleft" unicode="&#xab;" horiz-adv-x="471" 
d="M302 224l119 -179l-18 -15l-196 189v10l196 189l18 -16zM125 224l119 -179l-18 -15l-196 189v10l196 189l18 -16z" />
    <glyph glyph-name="logicalnot" unicode="&#xac;" horiz-adv-x="505" 
d="M464 283h-423v47h423v-47z" />
    <glyph glyph-name="minus" unicode="&#xad;" horiz-adv-x="505" 
d="M464 283h-423v47h423v-47z" />
    <glyph glyph-name="registered" unicode="&#xae;" horiz-adv-x="376" 
d="M188 352c-85 0 -150 65 -150 150s65 150 150 150s150 -65 150 -150s-65 -150 -150 -150zM188 368c74 0 131 58 131 134s-57 134 -131 134s-131 -58 -131 -134s57 -134 131 -134zM252 543c0 -18 -14 -34 -43 -39v-4c15 -3 24 -12 30 -25c7 -16 11 -25 17 -30
c5 -4 11 -7 21 -8v-9h-30c-18 0 -23 6 -31 26l-11 26c-5 12 -11 15 -27 15h-8v-52l26 -6v-9h-83v9l27 6v122l-27 7v9h85c37 0 54 -18 54 -38zM220 539c0 20 -12 30 -35 30h-15v-62h11c28 0 39 12 39 32z" />
    <glyph glyph-name="macron" unicode="&#xaf;" horiz-adv-x="321" 
d="M286 581v-42h-251v42h251z" />
    <glyph glyph-name="degree" unicode="&#xb0;" horiz-adv-x="384" 
d="M346 503c0 -73 -58 -151 -157 -151c-97 0 -151 73 -151 150c0 73 59 150 158 150c97 0 150 -72 150 -149zM277 503c0 74 -33 126 -86 126c-51 0 -84 -53 -84 -128c0 -74 36 -126 86 -126c53 0 84 53 84 128z" />
    <glyph glyph-name="plusminus" unicode="&#xb1;" 
d="M25 -200v1000h450v-1000h-450z" />
    <glyph glyph-name="twosuperior" unicode="&#xb2;" 
d="M25 -200v1000h450v-1000h-450z" />
    <glyph glyph-name="threesuperior" unicode="&#xb3;" 
d="M25 -200v1000h450v-1000h-450z" />
    <glyph glyph-name="acute" unicode="&#xb4;" horiz-adv-x="238" 
d="M180 696c18 -12 20 -36 6 -58c-17 -26 -74 -78 -118 -128l-12 8c28 61 52 133 69 159c14 21 37 30 55 19z" />
    <glyph glyph-name="mu" unicode="&#xb5;" horiz-adv-x="505" 
d="M282 306l143 -146l-33 -31l-140 145l-140 -145l-33 31l143 146l-142 145l33 31l139 -144l139 144l33 -31z" />
    <glyph glyph-name="paragraph" unicode="&#xb6;" horiz-adv-x="717" 
d="M582 -48l110 -18v-17h-212c-278 0 -420 155 -420 380c0 226 158 380 426 380h206v-16l-110 -19v-690zM471 644v-694l78 2v690z" />
    <glyph glyph-name="periodcentered" unicode="&#xb7;" horiz-adv-x="211" 
d="M166 318c0 -33 -27 -60 -60 -60c-34 0 -61 27 -61 60s27 60 61 60c33 0 60 -27 60 -60z" />
    <glyph glyph-name="cedilla" unicode="&#xb8;" horiz-adv-x="282" 
d="M169 -160c0 -54 -44 -93 -106 -93c-46 0 -70 20 -70 46c0 18 11 32 29 32s27 -14 27 -30c0 -9 -5 -18 -10 -23c7 -4 16 -7 27 -7c30 0 49 20 49 58c0 35 -18 60 -57 60c-10 0 -19 -2 -29 -5l-15 17l179 150l13 -19l-119 -100c48 -6 82 -39 82 -86z" />
    <glyph glyph-name="onesuperior" unicode="&#xb9;" 
d="M25 -200v1000h450v-1000h-450z" />
    <glyph glyph-name="ordmasculine" unicode="&#xba;" horiz-adv-x="404" 
d="M367 486c0 -89 -61 -170 -170 -170c-106 0 -160 74 -160 168c0 88 62 168 170 168c107 0 160 -72 160 -166zM290 486c0 98 -36 148 -90 148c-51 0 -86 -51 -86 -151c0 -99 39 -148 90 -148c53 0 86 50 86 151z" />
    <glyph glyph-name="guillemotright" unicode="&#xbb;" horiz-adv-x="471" 
d="M441 219l-196 -189l-18 15l119 179l-119 178l18 16l196 -189v-10zM264 219l-196 -189l-18 15l119 179l-119 178l18 16l196 -189v-10z" />
    <glyph glyph-name="onequarter" unicode="&#xbc;" 
d="M25 -200v1000h450v-1000h-450z" />
    <glyph glyph-name="onehalf" unicode="&#xbd;" 
d="M25 -200v1000h450v-1000h-450z" />
    <glyph glyph-name="threequarters" unicode="&#xbe;" 
d="M25 -200v1000h450v-1000h-450z" />
    <glyph glyph-name="questiondown" unicode="&#xbf;" horiz-adv-x="368" 
d="M279 341c0 -33 -27 -60 -60 -60s-60 27 -60 60s27 60 60 60s60 -27 60 -60zM360 -172c0 -55 -64 -94 -150 -94c-107 0 -182 76 -182 163c0 65 38 107 120 148c67 33 90 50 90 85c0 31 -25 52 -61 52c-21 0 -41 -4 -55 -7l-5 11c16 16 49 27 80 27c61 0 117 -34 117 -93
c0 -56 -34 -94 -108 -136c-65 -36 -100 -68 -100 -126c0 -55 36 -100 98 -100c24 0 44 7 58 22c-10 17 -14 35 -14 50c0 33 22 58 55 58c31 0 57 -25 57 -60z" />
    <glyph glyph-name="Agrave" unicode="&#xc0;" horiz-adv-x="629" 
d="M325 704l-13 -8c-44 50 -100 102 -117 128c-15 22 -13 46 5 58c18 11 42 2 55 -19c17 -26 41 -98 70 -159zM563 40l81 -23v-17h-285v17l99 18l-74 199h-219l-72 -193l72 -24v-17h-181v17l71 27l230 599h47zM371 267l-96 258h-2l-96 -258h194z" />
    <glyph glyph-name="Aacute" unicode="&#xc1;" horiz-adv-x="629" 
d="M385 882c18 -12 20 -36 6 -58c-17 -26 -74 -78 -118 -128l-12 8c28 61 52 133 69 159c14 21 37 30 55 19zM563 40l81 -23v-17h-285v17l99 18l-74 199h-219l-72 -193l72 -24v-17h-181v17l71 27l230 599h47zM371 267l-96 258h-2l-96 -258h194z" />
    <glyph glyph-name="Acircumflex" unicode="&#xc2;" horiz-adv-x="629" 
d="M307 770l-113 -99l-12 10l121 177h15l113 -177l-12 -10zM565 40l81 -23v-17h-285v17l99 18l-74 199h-219l-72 -193l72 -24v-17h-181v17l71 27l230 599h47zM373 267l-96 258h-2l-96 -258h194z" />
    <glyph glyph-name="Atilde" unicode="&#xc3;" horiz-adv-x="629" 
d="M171 718c12 74 41 99 81 99c50 0 99 -35 137 -35c20 0 38 11 50 42l13 -6c-11 -74 -40 -99 -80 -99c-50 0 -99 35 -138 35c-20 0 -37 -11 -50 -41zM563 40l81 -23v-17h-285v17l99 18l-74 199h-219l-72 -193l72 -24v-17h-181v17l71 27l230 599h47zM371 267l-96 258h-2
l-96 -258h194z" />
    <glyph glyph-name="Adieresis" unicode="&#xc4;" horiz-adv-x="629" 
d="M396 742c-28 0 -48 21 -48 49s23 54 54 54c28 0 48 -21 48 -49s-23 -54 -54 -54zM226 742c-28 0 -48 21 -48 49s23 54 54 54c28 0 48 -21 48 -49s-23 -54 -54 -54zM563 40l81 -23v-17h-285v17l99 18l-74 199h-219l-72 -193l72 -24v-17h-181v17l71 27l230 599h47zM371 267
l-96 258h-2l-96 -258h194z" />
    <glyph glyph-name="Aring" unicode="&#xc5;" horiz-adv-x="629" 
d="M563 40l81 -23v-17h-285v17l99 18l-74 199h-219l-72 -193l72 -24v-17h-181v17l71 27l227 592c-41 10 -66 45 -66 87c0 45 38 89 94 89c55 0 89 -40 89 -89c0 -37 -25 -73 -65 -85zM260 722c0 -46 19 -71 48 -71c30 0 46 25 46 72s-17 71 -48 71c-29 0 -46 -25 -46 -72z
M273 525l-96 -258h194l-96 258h-2z" />
    <glyph glyph-name="AE" unicode="&#xc6;" horiz-adv-x="922" 
d="M225 262l-140 -221l73 -24v-17h-194v17l71 27l365 550l-96 26v17h515l24 -171l-10 -7l-77 85c-36 39 -49 60 -111 60h-129v-269h53c60 0 83 24 101 94l9 33h15v-281h-15l-9 31c-18 70 -41 95 -101 95h-53v-273h175c59 0 72 16 100 53l88 112l9 -4l-27 -195h-544v17l99 18
v227h-191zM416 295v264h-2l-168 -264h170z" />
    <glyph glyph-name="Ccedilla" unicode="&#xc7;" horiz-adv-x="655" 
d="M156 329c0 -204 114 -310 251 -310c30 0 55 4 78 14l113 141l9 -4l-19 -132c-53 -28 -98 -46 -164 -51l-73 -61c48 -6 82 -39 82 -86c0 -54 -44 -93 -106 -93c-46 0 -70 20 -70 46c0 18 11 32 29 32s27 -14 27 -30c0 -9 -5 -18 -10 -23c7 -4 16 -7 27 -7
c30 0 49 20 49 58c0 35 -18 60 -57 60c-10 0 -19 -2 -29 -5l-15 17l108 90c-205 -1 -346 128 -346 327c0 185 145 340 343 340c51 0 109 -11 147 -31l43 34h11l8 -214l-16 -2c-67 134 -134 184 -234 184c-88 0 -186 -86 -186 -294z" />
    <glyph glyph-name="Egrave" unicode="&#xc8;" horiz-adv-x="641" 
d="M361 704l-13 -8c-44 50 -100 102 -117 128c-15 22 -13 46 5 58c18 11 42 2 55 -19c17 -26 41 -98 70 -159zM537 637l24 -171l-9 -7l-77 85c-36 39 -49 60 -111 60h-129v-269h53c60 0 83 24 101 94l9 33h15v-281h-15l-9 31c-18 70 -41 95 -101 95h-53v-273h175
c59 0 72 16 100 53l87 112l10 -4l-27 -195h-544v17l99 18v567l-99 18v17h501z" />
    <glyph glyph-name="Eacute" unicode="&#xc9;" horiz-adv-x="641" 
d="M395 882c18 -12 20 -36 6 -58c-17 -26 -74 -78 -118 -128l-12 8c28 61 52 133 69 159c14 21 37 30 55 19zM537 637l24 -171l-9 -7l-77 85c-36 39 -49 60 -111 60h-129v-269h53c60 0 83 24 101 94l9 33h15v-281h-15l-9 31c-18 70 -41 95 -101 95h-53v-273h175
c59 0 72 16 100 53l87 112l10 -4l-27 -195h-544v17l99 18v567l-99 18v17h501z" />
    <glyph glyph-name="Ecircumflex" unicode="&#xca;" horiz-adv-x="641" 
d="M319 788l-113 -99l-12 10l121 177h15l113 -177l-12 -10zM537 637l24 -171l-9 -7l-77 85c-36 39 -49 60 -111 60h-129v-269h53c60 0 83 24 101 94l9 33h15v-281h-15l-9 31c-18 70 -41 95 -101 95h-53v-273h175c59 0 72 16 100 53l87 112l10 -4l-27 -195h-544v17l99 18v567
l-99 18v17h501z" />
    <glyph glyph-name="Edieresis" unicode="&#xcb;" horiz-adv-x="641" 
d="M398 742c-28 0 -48 21 -48 49s23 54 54 54c28 0 48 -21 48 -49s-23 -54 -54 -54zM228 742c-28 0 -48 21 -48 49s23 54 54 54c28 0 48 -21 48 -49s-23 -54 -54 -54zM537 637l24 -171l-9 -7l-77 85c-36 39 -49 60 -111 60h-129v-269h53c60 0 83 24 101 94l9 33h15v-281h-15
l-9 31c-18 70 -41 95 -101 95h-53v-273h175c59 0 72 16 100 53l87 112l10 -4l-27 -195h-544v17l99 18v567l-99 18v17h501z" />
    <glyph glyph-name="Igrave" unicode="&#xcc;" horiz-adv-x="400" 
d="M234 704l-13 -8c-44 50 -100 102 -117 128c-15 22 -13 46 5 58c18 11 42 2 55 -19c17 -26 41 -98 70 -159zM250 35l102 -18v-17h-305v17l103 18v567l-103 18v17h305v-17l-102 -18v-567z" />
    <glyph glyph-name="Iacute" unicode="&#xcd;" horiz-adv-x="400" 
d="M281 882c18 -12 20 -36 6 -58c-17 -26 -74 -78 -118 -128l-12 8c28 61 52 133 69 159c14 21 37 30 55 19zM250 35l102 -18v-17h-305v17l103 18v567l-103 18v17h305v-17l-102 -18v-567z" />
    <glyph glyph-name="Icircumflex" unicode="&#xce;" horiz-adv-x="400" 
d="M202 790l-113 -99l-12 10l121 177h15l113 -177l-12 -10zM250 35l102 -18v-17h-305v17l103 18v567l-103 18v17h305v-17l-102 -18v-567z" />
    <glyph glyph-name="Idieresis" unicode="&#xcf;" horiz-adv-x="400" 
d="M284 742c-28 0 -48 21 -48 49s23 54 54 54c28 0 48 -21 48 -49s-23 -54 -54 -54zM114 742c-28 0 -48 21 -48 49s23 54 54 54c28 0 48 -21 48 -49s-23 -54 -54 -54zM250 35l102 -18v-17h-305v17l103 18v567l-103 18v17h305v-17l-102 -18v-567z" />
    <glyph glyph-name="Eth" unicode="&#xd0;" horiz-adv-x="731" 
d="M691 319c0 -181 -145 -319 -354 -319h-301v17l99 18v279h-85v33h85v255l-99 18v17h307c218 0 348 -138 348 -318zM576 319c0 207 -111 285 -253 285h-88v-257h116v-33h-116v-281h110c134 0 231 78 231 286z" />
    <glyph glyph-name="Ntilde" unicode="&#xd1;" horiz-adv-x="745" 
d="M239 718c12 74 41 99 81 99c50 0 99 -35 137 -35c20 0 38 11 50 42l13 -6c-11 -74 -40 -99 -80 -99c-50 0 -99 35 -138 35c-20 0 -37 -11 -50 -41zM130 44v550l-79 26v17h188l75 -102l266 -351h6v409l-79 27v17h192v-17l-79 -27v-599h-28l-75 102l-347 456h-7v-508
l79 -27v-17h-191v17z" />
    <glyph glyph-name="Ograve" unicode="&#xd2;" horiz-adv-x="706" 
d="M371 704l-13 -8c-44 50 -100 102 -117 128c-15 22 -13 46 5 58c18 11 42 2 55 -19c17 -26 41 -98 70 -159zM664 319c0 -181 -123 -334 -315 -334c-201 0 -309 153 -309 334c0 180 123 333 315 333c201 0 309 -153 309 -333zM549 319c0 208 -108 310 -208 310
c-92 0 -186 -76 -186 -310s108 -311 208 -311c92 0 186 102 186 311z" />
    <glyph glyph-name="Oacute" unicode="&#xd3;" horiz-adv-x="706" 
d="M429 882c18 -12 20 -36 6 -58c-17 -26 -74 -78 -118 -128l-12 8c28 61 52 133 69 159c14 21 37 30 55 19zM664 319c0 -181 -123 -334 -315 -334c-201 0 -309 153 -309 334c0 180 123 333 315 333c201 0 309 -153 309 -333zM549 319c0 208 -108 310 -208 310
c-92 0 -186 -76 -186 -310s108 -311 208 -311c92 0 186 102 186 311z" />
    <glyph glyph-name="Ocircumflex" unicode="&#xd4;" horiz-adv-x="706" 
d="M342 790l-113 -99l-12 10l121 177h15l113 -177l-12 -10zM664 319c0 -181 -123 -334 -315 -334c-201 0 -309 153 -309 334c0 180 123 333 315 333c201 0 309 -153 309 -333zM549 319c0 208 -108 310 -208 310c-92 0 -186 -76 -186 -310s108 -311 208 -311
c92 0 186 102 186 311z" />
    <glyph glyph-name="Otilde" unicode="&#xd5;" horiz-adv-x="706" 
d="M212 718c12 74 41 99 81 99c50 0 99 -35 137 -35c20 0 38 11 50 42l13 -6c-11 -74 -40 -99 -80 -99c-50 0 -99 35 -138 35c-20 0 -37 -11 -50 -41zM664 319c0 -181 -123 -334 -315 -334c-201 0 -309 153 -309 334c0 180 123 333 315 333c201 0 309 -153 309 -333z
M549 319c0 208 -108 310 -208 310c-92 0 -186 -76 -186 -310s108 -311 208 -311c92 0 186 102 186 311z" />
    <glyph glyph-name="Odieresis" unicode="&#xd6;" horiz-adv-x="706" 
d="M421 742c-28 0 -48 21 -48 49s23 54 54 54c28 0 48 -21 48 -49s-23 -54 -54 -54zM251 742c-28 0 -48 21 -48 49s23 54 54 54c28 0 48 -21 48 -49s-23 -54 -54 -54zM664 319c0 -181 -123 -334 -315 -334c-201 0 -309 153 -309 334c0 180 123 333 315 333
c201 0 309 -153 309 -333zM549 319c0 208 -108 310 -208 310c-92 0 -186 -76 -186 -310s108 -311 208 -311c92 0 186 102 186 311z" />
    <glyph glyph-name="multiply" unicode="&#xd7;" horiz-adv-x="505" 
d="M282 306l143 -146l-33 -31l-140 145l-140 -145l-33 31l143 146l-142 145l33 31l139 -144l139 144l33 -31z" />
    <glyph glyph-name="Oslash" unicode="&#xd8;" horiz-adv-x="706" 
d="M664 319c0 -181 -123 -334 -315 -334c-82 0 -149 26 -199 68c-34 -39 -75 -85 -75 -85l-25 20l77 87c-57 62 -87 149 -87 244c0 180 123 333 315 333c89 0 160 -30 212 -80l62 71l25 -21l-65 -74c50 -59 75 -141 75 -229zM184 140l326 368c-41 81 -106 121 -169 121
c-92 0 -186 -76 -186 -310c0 -75 11 -134 29 -179zM524 475c0 0 -324 -366 -325 -366c41 -73 104 -101 164 -101c92 0 186 102 186 311c0 61 -9 113 -25 156z" />
    <glyph glyph-name="Ugrave" unicode="&#xd9;" horiz-adv-x="736" 
d="M444 704l-13 -8c-44 50 -100 102 -117 128c-15 22 -13 46 5 58c18 11 42 2 55 -19c17 -26 41 -98 70 -159zM592 593l-79 27v17h191v-17l-79 -27v-388c0 -128 -105 -222 -246 -222c-159 0 -254 71 -254 219v400l-99 18v17h300v-17l-99 -18v-379c0 -141 65 -191 195 -191
c120 0 170 89 170 195v366z" />
    <glyph glyph-name="Uacute" unicode="&#xda;" horiz-adv-x="736" 
d="M499 882c18 -12 20 -36 6 -58c-17 -26 -74 -78 -118 -128l-12 8c28 61 52 133 69 159c14 21 37 30 55 19zM592 593l-79 27v17h191v-17l-79 -27v-388c0 -128 -105 -222 -246 -222c-159 0 -254 71 -254 219v400l-99 18v17h300v-17l-99 -18v-379c0 -141 65 -191 195 -191
c120 0 170 89 170 195v366z" />
    <glyph glyph-name="Ucircumflex" unicode="&#xdb;" horiz-adv-x="736" 
d="M417 790l-113 -99l-12 10l121 177h15l113 -177l-12 -10zM592 593l-79 27v17h191v-17l-79 -27v-388c0 -128 -105 -222 -246 -222c-159 0 -254 71 -254 219v400l-99 18v17h300v-17l-99 -18v-379c0 -141 65 -191 195 -191c120 0 170 89 170 195v366z" />
    <glyph glyph-name="Udieresis" unicode="&#xdc;" horiz-adv-x="736" 
d="M488 742c-28 0 -48 21 -48 49s23 54 54 54c28 0 48 -21 48 -49s-23 -54 -54 -54zM318 742c-28 0 -48 21 -48 49s23 54 54 54c28 0 48 -21 48 -49s-23 -54 -54 -54zM592 593l-79 27v17h191v-17l-79 -27v-388c0 -128 -105 -222 -246 -222c-159 0 -254 71 -254 219v400
l-99 18v17h300v-17l-99 -18v-379c0 -141 65 -191 195 -191c120 0 170 89 170 195v366z" />
    <glyph glyph-name="Yacute" unicode="&#xdd;" horiz-adv-x="633" 
d="M462 882c18 -12 20 -36 6 -58c-17 -26 -74 -78 -118 -128l-12 8c28 61 52 133 69 159c14 21 37 30 55 19zM566 593l-188 -301v-257l102 -18v-17h-304v17l102 18v240l-192 322l-88 23v17h292v-17l-86 -18l151 -285l158 279l-73 24v17h205v-17z" />
    <glyph glyph-name="Thorn" unicode="&#xde;" horiz-adv-x="592" 
d="M554 323c0 -90 -69 -185 -214 -185c-33 0 -73 4 -105 8v-112l99 -18v-17h-298v17l99 18v567l-99 18v17h298v-17l-99 -18v-112c28 5 62 9 90 9c153 0 229 -77 229 -175zM442 319c0 95 -49 153 -138 153c-25 0 -49 -3 -69 -7v-294c18 -3 37 -5 67 -5c92 0 140 49 140 153z
" />
    <glyph glyph-name="germandbls" unicode="&#xdf;" horiz-adv-x="580" 
d="M543 140c0 -88 -60 -155 -146 -155c-76 0 -126 33 -126 77c0 27 19 47 45 47c37 0 58 -36 48 -87c9 -9 25 -15 43 -15c35 0 63 31 63 78c0 61 -45 130 -191 227v7c100 101 133 162 133 237c0 74 -39 140 -114 140c-62 0 -97 -37 -97 -151v-514l41 -17v-14h-192v14l66 17
v371h-90v18l90 26v31c0 97 34 158 88 205c36 32 86 59 140 59c109 0 163 -85 163 -166c0 -61 -48 -138 -144 -206v-7c132 -83 180 -156 180 -222z" />
    <glyph glyph-name="agrave" unicode="&#xe0;" horiz-adv-x="468" 
d="M269 518l-13 -8c-44 50 -100 102 -117 128c-15 22 -13 46 5 58c18 11 42 2 55 -19c17 -26 41 -98 70 -159zM388 326v-269c0 -29 24 -38 84 -32l2 -11c-19 -13 -69 -30 -105 -30c-38 0 -58 21 -61 74l-4 2c-46 -46 -97 -76 -151 -76c-65 0 -107 38 -107 99
c0 90 107 139 258 159v75c0 67 -43 102 -103 102c-22 0 -48 -5 -74 -15c22 -18 31 -39 31 -58c0 -25 -19 -48 -47 -48c-30 0 -48 23 -48 49c0 63 104 116 199 116c88 0 126 -47 126 -137zM304 74v139c-128 0 -170 -46 -170 -100c0 -43 28 -69 72 -69c27 0 61 10 98 30z" />
    <glyph glyph-name="aacute" unicode="&#xe1;" horiz-adv-x="468" 
d="M324 696c18 -12 20 -36 6 -58c-17 -26 -74 -78 -118 -128l-12 8c28 61 52 133 69 159c14 21 37 30 55 19zM388 326v-269c0 -29 24 -38 84 -32l2 -11c-19 -13 -69 -30 -105 -30c-38 0 -58 21 -61 74l-4 2c-46 -46 -97 -76 -151 -76c-65 0 -107 38 -107 99
c0 90 107 139 258 159v75c0 67 -43 102 -103 102c-22 0 -48 -5 -74 -15c22 -18 31 -39 31 -58c0 -25 -19 -48 -47 -48c-30 0 -48 23 -48 49c0 63 104 116 199 116c88 0 126 -47 126 -137zM304 74v139c-128 0 -170 -46 -170 -100c0 -43 28 -69 72 -69c27 0 61 10 98 30z" />
    <glyph glyph-name="acircumflex" unicode="&#xe2;" horiz-adv-x="468" 
d="M243 604l-113 -99l-12 10l121 177h15l113 -177l-12 -10zM388 326v-269c0 -29 24 -38 84 -32l2 -11c-19 -13 -69 -30 -105 -30c-38 0 -58 21 -61 74l-4 2c-46 -46 -97 -76 -151 -76c-65 0 -107 38 -107 99c0 90 107 139 258 159v75c0 67 -43 102 -103 102
c-22 0 -48 -5 -74 -15c22 -18 31 -39 31 -58c0 -25 -19 -48 -47 -48c-30 0 -48 23 -48 49c0 63 104 116 199 116c88 0 126 -47 126 -137zM304 74v139c-128 0 -170 -46 -170 -100c0 -43 28 -69 72 -69c27 0 61 10 98 30z" />
    <glyph glyph-name="atilde" unicode="&#xe3;" horiz-adv-x="468" 
d="M96 532c12 74 41 99 81 99c50 0 99 -35 137 -35c20 0 38 11 50 42l13 -6c-11 -74 -40 -99 -80 -99c-50 0 -99 35 -138 35c-20 0 -37 -11 -50 -41zM388 326v-269c0 -29 24 -38 84 -32l2 -11c-19 -13 -69 -30 -105 -30c-38 0 -58 21 -61 74l-4 2c-46 -46 -97 -76 -151 -76
c-65 0 -107 38 -107 99c0 90 107 139 258 159v75c0 67 -43 102 -103 102c-22 0 -48 -5 -74 -15c22 -18 31 -39 31 -58c0 -25 -19 -48 -47 -48c-30 0 -48 23 -48 49c0 63 104 116 199 116c88 0 126 -47 126 -137zM304 74v139c-128 0 -170 -46 -170 -100c0 -43 28 -69 72 -69
c27 0 61 10 98 30z" />
    <glyph glyph-name="adieresis" unicode="&#xe4;" horiz-adv-x="468" 
d="M305 556c-28 0 -48 21 -48 49s23 54 54 54c28 0 48 -21 48 -49s-23 -54 -54 -54zM135 556c-28 0 -48 21 -48 49s23 54 54 54c28 0 48 -21 48 -49s-23 -54 -54 -54zM388 326v-269c0 -29 24 -38 84 -32l2 -11c-19 -13 -69 -30 -105 -30c-38 0 -58 21 -61 74l-4 2
c-46 -46 -97 -76 -151 -76c-65 0 -107 38 -107 99c0 90 107 139 258 159v75c0 67 -43 102 -103 102c-22 0 -48 -5 -74 -15c22 -18 31 -39 31 -58c0 -25 -19 -48 -47 -48c-30 0 -48 23 -48 49c0 63 104 116 199 116c88 0 126 -47 126 -137zM304 74v139
c-128 0 -170 -46 -170 -100c0 -43 28 -69 72 -69c27 0 61 10 98 30z" />
    <glyph glyph-name="aring" unicode="&#xe5;" horiz-adv-x="468" 
d="M331 592c0 -45 -38 -89 -94 -89c-55 0 -89 40 -89 89c0 45 38 89 94 89c55 0 89 -40 89 -89zM388 326v-269c0 -29 24 -38 84 -32l2 -11c-19 -13 -69 -30 -105 -30c-38 0 -58 21 -61 74l-4 2c-46 -46 -97 -76 -151 -76c-65 0 -107 38 -107 99c0 90 107 139 258 159v75
c0 67 -43 102 -103 102c-22 0 -48 -5 -74 -15c22 -18 31 -39 31 -58c0 -25 -19 -48 -47 -48c-30 0 -48 23 -48 49c0 63 104 116 199 116c88 0 126 -47 126 -137zM286 592c0 47 -17 71 -48 71c-29 0 -46 -25 -46 -72c0 -46 19 -71 48 -71c30 0 46 25 46 72zM304 74v139
c-128 0 -170 -46 -170 -100c0 -43 28 -69 72 -69c27 0 61 10 98 30z" />
    <glyph glyph-name="ae" unicode="&#xe6;" horiz-adv-x="747" 
d="M710 270h-316c0 -134 46 -223 158 -223c49 0 90 10 147 40l6 -13c-62 -58 -118 -89 -182 -89c-81 0 -147 37 -185 99l-4 1c-56 -56 -117 -100 -182 -100s-106 38 -106 99c0 90 106 139 257 159v74c0 68 -42 103 -103 103c-21 0 -47 -5 -73 -15c22 -18 31 -40 31 -58
c0 -25 -19 -48 -47 -48c-30 0 -48 23 -48 49c0 63 104 116 199 116c59 0 95 -21 113 -62c39 39 91 62 149 62c124 0 186 -82 186 -194zM517 443c-64 0 -116 -61 -122 -151l219 7c-7 86 -35 144 -97 144zM331 97c-17 34 -27 73 -28 117c-127 0 -170 -46 -170 -100
c0 -44 28 -69 73 -69c47 0 84 21 125 52z" />
    <glyph glyph-name="ccedilla" unicode="&#xe7;" horiz-adv-x="454" 
d="M125 235c0 -106 57 -189 159 -189c49 0 94 14 141 37l5 -13c-27 -29 -59 -53 -93 -68l-91 -76c48 -6 82 -39 82 -86c0 -54 -44 -93 -106 -93c-46 0 -70 20 -70 46c0 18 11 32 29 32s27 -14 27 -30c0 -9 -5 -18 -10 -23c7 -4 16 -7 27 -7c30 0 49 20 49 58
c0 35 -18 60 -57 60c-10 0 -19 -2 -29 -5l-15 17l109 91c-9 -1 -18 -2 -27 -2c-129 0 -220 93 -220 232s103 248 246 248c83 0 138 -40 138 -90c0 -34 -23 -60 -54 -60c-36 0 -57 30 -57 60c0 22 9 44 22 59c-14 3 -25 4 -42 4c-84 0 -163 -59 -163 -202z" />
    <glyph glyph-name="egrave" unicode="&#xe8;" horiz-adv-x="479" 
d="M283 518l-13 -8c-44 50 -100 102 -117 128c-15 22 -13 46 5 58c18 11 42 2 55 -19c17 -26 41 -98 70 -159zM442 270h-316c0 -133 45 -224 158 -224c49 0 90 11 147 40l6 -12c-62 -59 -118 -90 -183 -90c-128 0 -219 94 -219 233c0 141 97 247 221 247s186 -83 186 -194z
M127 291l219 7c-7 86 -35 144 -97 144c-64 0 -116 -60 -122 -151z" />
    <glyph glyph-name="eacute" unicode="&#xe9;" horiz-adv-x="479" 
d="M328 696c18 -12 20 -36 6 -58c-17 -26 -74 -78 -118 -128l-12 8c28 61 52 133 69 159c14 21 37 30 55 19zM442 270h-316c0 -133 45 -224 158 -224c49 0 90 11 147 40l6 -12c-62 -59 -118 -90 -183 -90c-128 0 -219 94 -219 233c0 141 97 247 221 247s186 -83 186 -194z
M127 291l219 7c-7 86 -35 144 -97 144c-64 0 -116 -60 -122 -151z" />
    <glyph glyph-name="ecircumflex" unicode="&#xea;" horiz-adv-x="479" 
d="M252 604l-113 -99l-12 10l121 177h15l113 -177l-12 -10zM442 270h-316c0 -133 45 -224 158 -224c49 0 90 11 147 40l6 -12c-62 -59 -118 -90 -183 -90c-128 0 -219 94 -219 233c0 141 97 247 221 247s186 -83 186 -194zM127 291l219 7c-7 86 -35 144 -97 144
c-64 0 -116 -60 -122 -151z" />
    <glyph glyph-name="edieresis" unicode="&#xeb;" horiz-adv-x="479" 
d="M337 556c-28 0 -48 21 -48 49s23 54 54 54c28 0 48 -21 48 -49s-23 -54 -54 -54zM167 556c-28 0 -48 21 -48 49s23 54 54 54c28 0 48 -21 48 -49s-23 -54 -54 -54zM442 270h-316c0 -133 45 -224 158 -224c49 0 90 11 147 40l6 -12c-62 -59 -118 -90 -183 -90
c-128 0 -219 94 -219 233c0 141 97 247 221 247s186 -83 186 -194zM127 291l219 7c-7 86 -35 144 -97 144c-64 0 -116 -60 -122 -151z" />
    <glyph glyph-name="igrave" unicode="&#xec;" horiz-adv-x="281" 
d="M170 518l-13 -8c-44 50 -100 102 -117 128c-15 22 -13 46 5 58c18 11 42 2 55 -19c17 -26 41 -98 70 -159zM105 31v347l-66 42v9l146 36l4 -3v-431l67 -18v-13h-221v13z" />
    <glyph glyph-name="iacute" unicode="&#xed;" horiz-adv-x="281" 
d="M226 696c18 -12 20 -36 6 -58c-17 -26 -74 -78 -118 -128l-12 8c28 61 52 133 69 159c14 21 37 30 55 19zM105 31v347l-66 42v9l146 36l4 -3v-431l67 -18v-13h-221v13z" />
    <glyph glyph-name="icircumflex" unicode="&#xee;" horiz-adv-x="281" 
d="M141 604l-113 -99l-12 10l121 177h15l113 -177l-12 -10zM105 31v347l-66 42v9l146 36l4 -3v-431l67 -18v-13h-221v13z" />
    <glyph glyph-name="idieresis" unicode="&#xef;" horiz-adv-x="281" 
d="M221 556c-28 0 -48 21 -48 49s23 54 54 54c28 0 48 -21 48 -49s-23 -54 -54 -54zM51 556c-28 0 -48 21 -48 49s23 54 54 54c28 0 48 -21 48 -49s-23 -54 -54 -54zM105 31v347l-66 42v9l146 36l4 -3v-431l67 -18v-13h-221v13z" />
    <glyph glyph-name="eth" unicode="&#xf0;" horiz-adv-x="531" 
d="M496 288c0 -174 -96 -304 -243 -304c-142 0 -218 103 -218 240c0 128 92 239 222 239c48 0 82 -14 112 -33l3 2c-18 56 -44 109 -79 156l-92 -40l-11 29l83 36c-36 43 -82 81 -136 111l8 17c70 -19 134 -55 188 -102l95 40l11 -28s-81 -35 -82 -35
c85 -87 139 -204 139 -328zM399 253c0 52 -6 103 -19 153c-31 12 -57 18 -94 18c-80 0 -155 -77 -155 -207c0 -129 73 -202 148 -202c76 0 120 93 120 238z" />
    <glyph glyph-name="ntilde" unicode="&#xf1;" horiz-adv-x="558" 
d="M131 532c12 74 41 99 81 99c50 0 99 -35 137 -35c20 0 38 11 50 42l13 -6c-11 -74 -40 -99 -80 -99c-50 0 -99 35 -138 35c-20 0 -37 -11 -50 -41zM475 325v-294l66 -18v-13h-213v13l63 18v251c0 76 -27 112 -94 112c-42 0 -72 -8 -112 -31v-332l62 -18v-13h-213v13
l66 18v347l-65 42v9l140 36l4 -3l-2 -80l4 -2c60 56 117 84 171 84c90 0 123 -68 123 -139z" />
    <glyph glyph-name="ograve" unicode="&#xf2;" horiz-adv-x="519" 
d="M302 518l-13 -8c-44 50 -100 102 -117 128c-15 22 -13 46 5 58c18 11 42 2 55 -19c17 -26 41 -98 70 -159zM484 227c0 -128 -84 -243 -231 -243c-141 0 -218 103 -218 240c0 128 86 240 232 240c143 0 217 -100 217 -237zM387 227c0 146 -56 215 -131 215
c-69 0 -124 -71 -124 -221c0 -146 61 -215 131 -215c74 0 124 71 124 221z" />
    <glyph glyph-name="oacute" unicode="&#xf3;" horiz-adv-x="519" 
d="M340 696c18 -12 20 -36 6 -58c-17 -26 -74 -78 -118 -128l-12 8c28 61 52 133 69 159c14 21 37 30 55 19zM484 227c0 -128 -84 -243 -231 -243c-141 0 -218 103 -218 240c0 128 86 240 232 240c143 0 217 -100 217 -237zM387 227c0 146 -56 215 -131 215
c-69 0 -124 -71 -124 -221c0 -146 61 -215 131 -215c74 0 124 71 124 221z" />
    <glyph glyph-name="ocircumflex" unicode="&#xf4;" horiz-adv-x="519" 
d="M258 604l-113 -99l-12 10l121 177h15l113 -177l-12 -10zM484 227c0 -128 -84 -243 -231 -243c-141 0 -218 103 -218 240c0 128 86 240 232 240c143 0 217 -100 217 -237zM387 227c0 146 -56 215 -131 215c-69 0 -124 -71 -124 -221c0 -146 61 -215 131 -215
c74 0 124 71 124 221z" />
    <glyph glyph-name="otilde" unicode="&#xf5;" horiz-adv-x="519" 
d="M115 532c12 74 41 99 81 99c50 0 99 -35 137 -35c20 0 38 11 50 42l13 -6c-11 -74 -40 -99 -80 -99c-50 0 -99 35 -138 35c-20 0 -37 -11 -50 -41zM484 227c0 -128 -84 -243 -231 -243c-141 0 -218 103 -218 240c0 128 86 240 232 240c143 0 217 -100 217 -237zM387 227
c0 146 -56 215 -131 215c-69 0 -124 -71 -124 -221c0 -146 61 -215 131 -215c74 0 124 71 124 221z" />
    <glyph glyph-name="odieresis" unicode="&#xf6;" horiz-adv-x="519" 
d="M340 556c-28 0 -48 21 -48 49s23 54 54 54c28 0 48 -21 48 -49s-23 -54 -54 -54zM170 556c-28 0 -48 21 -48 49s23 54 54 54c28 0 48 -21 48 -49s-23 -54 -54 -54zM484 227c0 -128 -84 -243 -231 -243c-141 0 -218 103 -218 240c0 128 86 240 232 240
c143 0 217 -100 217 -237zM387 227c0 146 -56 215 -131 215c-69 0 -124 -71 -124 -221c0 -146 61 -215 131 -215c74 0 124 71 124 221z" />
    <glyph glyph-name="divide" unicode="&#xf7;" horiz-adv-x="505" 
d="M252 515c30 0 55 -25 55 -55s-25 -55 -55 -55s-55 25 -55 55s25 55 55 55zM464 284h-423v45h423v-45zM252 208c30 0 55 -25 55 -55s-25 -55 -55 -55s-55 25 -55 55s25 55 55 55z" />
    <glyph glyph-name="oslash" unicode="&#xf8;" horiz-adv-x="519" 
d="M428 398c37 -42 56 -101 56 -171c0 -128 -84 -243 -231 -243c-56 0 -102 16 -137 44l-46 -55l-25 20l48 57c-38 43 -58 104 -58 174c0 128 86 240 232 240c56 0 102 -16 137 -43l45 54l25 -21s-46 -55 -46 -56zM361 370c-24 48 -61 72 -105 72c-69 0 -124 -71 -124 -221
c0 -42 5 -78 14 -108zM387 227c0 42 -5 78 -13 108l-215 -256c25 -49 63 -73 104 -73c74 0 124 71 124 221z" />
    <glyph glyph-name="ugrave" unicode="&#xf9;" horiz-adv-x="544" 
d="M300 518l-13 -8c-44 50 -100 102 -117 128c-15 22 -13 46 5 58c18 11 42 2 55 -19c17 -26 41 -98 70 -159zM463 56l66 -26v-10l-140 -35l-4 2l2 79l-4 2c-60 -56 -117 -84 -171 -84c-90 0 -123 68 -123 139v262l-65 35v9l146 36l4 -3v-296c0 -77 27 -113 93 -113
c42 0 72 9 112 32v300l-66 35v9l146 36l4 -3v-406z" />
    <glyph glyph-name="uacute" unicode="&#xfa;" horiz-adv-x="544" 
d="M354 696c18 -12 20 -36 6 -58c-17 -26 -74 -78 -118 -128l-12 8c28 61 52 133 69 159c14 21 37 30 55 19zM463 56l66 -26v-10l-140 -35l-4 2l2 79l-4 2c-60 -56 -117 -84 -171 -84c-90 0 -123 68 -123 139v262l-65 35v9l146 36l4 -3v-296c0 -77 27 -113 93 -113
c42 0 72 9 112 32v300l-66 35v9l146 36l4 -3v-406z" />
    <glyph glyph-name="ucircumflex" unicode="&#xfb;" horiz-adv-x="544" 
d="M267 604l-113 -99l-12 10l121 177h15l113 -177l-12 -10zM463 56l66 -26v-10l-140 -35l-4 2l2 79l-4 2c-60 -56 -117 -84 -171 -84c-90 0 -123 68 -123 139v262l-65 35v9l146 36l4 -3v-296c0 -77 27 -113 93 -113c42 0 72 9 112 32v300l-66 35v9l146 36l4 -3v-406z" />
    <glyph glyph-name="udieresis" unicode="&#xfc;" horiz-adv-x="544" 
d="M339 556c-28 0 -48 21 -48 49s23 54 54 54c28 0 48 -21 48 -49s-23 -54 -54 -54zM169 556c-28 0 -48 21 -48 49s23 54 54 54c28 0 48 -21 48 -49s-23 -54 -54 -54zM463 56l66 -26v-10l-140 -35l-4 2l2 79l-4 2c-60 -56 -117 -84 -171 -84c-90 0 -123 68 -123 139v262
l-65 35v9l146 36l4 -3v-296c0 -77 27 -113 93 -113c42 0 72 9 112 32v300l-66 35v9l146 36l4 -3v-406z" />
    <glyph glyph-name="yacute" unicode="&#xfd;" horiz-adv-x="490" 
d="M369 696c18 -12 20 -36 6 -58c-17 -26 -74 -78 -118 -128l-12 8c28 61 52 133 69 159c14 21 37 30 55 19zM431 404l-197 -492c-33 -82 -75 -122 -131 -122c-47 0 -67 29 -67 56s23 48 51 48c31 0 49 -19 70 -47c19 18 37 45 52 78l29 66l-174 423l-61 21v13h228v-13
l-70 -21l117 -311h5l108 303l-63 29v13h171v-13z" />
    <glyph glyph-name="thorn" unicode="&#xfe;" horiz-adv-x="527" 
d="M489 237c0 -130 -93 -253 -244 -253c-32 0 -60 4 -88 11v-168l76 -24v-13h-227v13l66 24v822l-73 43v10l154 39l4 -3v-338l4 -3c33 36 83 66 149 66c101 0 179 -88 179 -226zM400 217c0 109 -53 184 -145 184c-33 0 -73 -17 -98 -35v-309c35 -30 70 -48 114 -48
c64 0 129 65 129 208z" />
    <glyph glyph-name="ydieresis" unicode="&#xff;" horiz-adv-x="490" 
d="M353 556c-28 0 -48 21 -48 49s23 54 54 54c28 0 48 -21 48 -49s-23 -54 -54 -54zM183 556c-28 0 -48 21 -48 49s23 54 54 54c28 0 48 -21 48 -49s-23 -54 -54 -54zM431 404l-197 -492c-33 -82 -75 -122 -131 -122c-47 0 -67 29 -67 56s23 48 51 48c31 0 49 -19 70 -47
c19 18 37 45 52 78l29 66l-174 423l-61 21v13h228v-13l-70 -21l117 -311h5l108 303l-63 29v13h171v-13z" />
    <glyph glyph-name="Delta" 
d="M25 -200v1000h450v-1000h-450z" />
    <glyph glyph-name="NUL" horiz-adv-x="0" 
 />
    <glyph glyph-name="Omega" horiz-adv-x="597" 
d="M483 443h125v-41h-125v-371l75 -17v-14h-225v14l66 17v371h-200v-371l70 -17v-14h-220v14l66 17v371h-91v18l91 26v53c0 92 32 159 104 204c34 22 79 38 124 38c81 0 107 -46 107 -80c12 14 26 26 42 38c35 26 79 42 125 42c69 0 96 -36 96 -69c0 -29 -19 -49 -49 -49
c-33 0 -65 25 -85 87c-65 -22 -96 -75 -96 -191v-76zM199 443h200v53c0 49 8 89 24 123c-37 -14 -87 11 -103 93c-82 -20 -121 -73 -121 -202v-67z" />
    <glyph glyph-name="apple" horiz-adv-x="694" 
d="M644 -200h-208l-8 14h-163l-8 -14h-207v303c18 0 32 14 32 32c0 17 -14 32 -32 32v554h100l30 79h334l29 -79h101v-921zM400 563v-172h15v78h38v14h-38v66h43v14h-58zM184 563v-172h15v79h47v-79h15v172h-15v-79h-47v79h-15zM460 394c4 -2 15 -4 21 -4c20 0 31 11 31 36
v137h-16v-137c0 -16 -5 -22 -16 -22c-5 0 -15 3 -20 6v-16zM349 438l-16 31c13 12 23 26 23 42c0 15 -9 31 -27 31c-17 0 -28 -16 -28 -31s6 -24 14 -39c-15 -12 -23 -28 -23 -45c0 -22 13 -39 31 -39c13 0 22 12 27 24h1l12 -24l11 8l-16 30c5 12 10 25 13 39l-13 3
c-2 -9 -6 -21 -9 -30zM523 323v-46h8v13l7 7l16 -20h9l-19 26l18 20h-10l-21 -24v24h-8zM488 292l10 -15h9l-12 17c6 2 10 8 10 15c0 6 -6 14 -16 14h-21v-46h8v15h12zM426 276c15 0 24 11 24 24c0 12 -10 24 -24 24s-23 -12 -23 -24c0 -13 9 -24 23 -24zM370 301l-13 22h-9
l18 -29v-17h8v17l18 29h-9zM193 323v-46h33v7h-25v13h22v7h-22v12h25v7h-33zM132 323v-46h8v32l25 -32h7v46h-8v-32l-25 32h-7zM241 323l15 -47h8l10 34h1l11 -34h8l14 47h-8l-10 -35h-1l-10 35h-8l-11 -35h-1l-10 35h-8zM327 479c-7 13 -12 22 -12 32s6 19 14 19
s13 -9 13 -19c0 -12 -5 -21 -15 -32zM342 423c-3 -10 -11 -21 -18 -21c-10 0 -17 12 -17 27c0 11 6 24 15 33zM488 299h-12v17h11c6 0 10 -3 10 -8s-4 -9 -9 -9zM426 283c-9 0 -15 8 -15 17c0 8 6 17 15 17s16 -9 16 -17c0 -9 -7 -17 -16 -17z" />
    <glyph glyph-name="approxequal" horiz-adv-x="859" 
d="M484 443h186l94 22l4 -2v-432l66 -17v-14h-217v14l66 17v371h-199v-371l67 -17v-14h-218v14l66 17v371h-200v-371l70 -17v-14h-220v14l66 17v371h-91v18l91 26v53c0 92 32 159 104 204c34 22 79 38 124 38c88 0 107 -49 107 -85c15 19 34 35 57 49c34 20 78 36 123 36
c86 0 112 -47 112 -80c0 -29 -18 -49 -47 -49c-35 0 -72 31 -82 100c-88 -18 -129 -71 -129 -206v-63zM199 443h200v53c0 49 8 89 24 123c-37 -14 -87 11 -103 93c-82 -20 -121 -73 -121 -202v-67z" />
    <glyph glyph-name="greaterequal" 
d="M25 -200v1000h450v-1000h-450z" />
    <glyph glyph-name="infinity" 
d="M25 -200v1000h450v-1000h-450z" />
    <glyph glyph-name="integral" 
d="M25 -200v1000h450v-1000h-450z" />
    <glyph glyph-name="lessequal" 
d="M25 -200v1000h450v-1000h-450z" />
    <glyph glyph-name="lozenge" horiz-adv-x="490" 
d="M437 619v-142l26 -9v-9h-91v9l24 9v137h-3l-60 -155h-20l-62 155h-4v-135l23 -11v-9h-65v9l22 11v139l-22 10v9h80l12 -31l36 -93h3l34 93l11 31h82v-9zM176 514c0 -40 -32 -61 -67 -61c-17 0 -42 4 -54 9l-9 -11h-9l-1 68l9 1c24 -36 45 -53 66 -53c18 0 31 10 31 27
c0 19 -16 27 -47 37c-29 9 -54 23 -54 55c0 34 30 55 63 55c15 0 33 -3 43 -7l8 9h9l4 -61l-10 -1c-23 33 -40 48 -58 48c-14 0 -24 -10 -24 -27c0 -19 15 -26 47 -37c31 -11 53 -22 53 -51z" />
    <glyph glyph-name="nbspace" horiz-adv-x="115" 
 />
    <glyph glyph-name="notequal" 
d="M25 -200v1000h450v-1000h-450z" />
    <glyph glyph-name="partialdiff" 
d="M25 -200v1000h450v-1000h-450z" />
    <glyph glyph-name="pi" horiz-adv-x="734" 
d="M701 318c0 -185 -150 -334 -334 -334s-334 149 -334 334c0 184 150 333 334 333s334 -149 334 -333zM676 318c0 171 -138 310 -309 310c-170 0 -309 -139 -309 -310c0 -172 139 -311 309 -311c171 0 309 139 309 311zM520 390c0 -50 -41 -102 -118 -102
c-17 0 -38 2 -55 4v-116l52 -11v-16h-168v16l50 11v284l-50 11v15h165c87 0 124 -44 124 -96zM449 390c0 48 -23 75 -68 76c-6 0 -29 0 -34 -1v-154c4 -1 26 -1 34 -1c45 1 68 29 68 80z" />
    <glyph glyph-name="product" 
d="M25 -200v1000h450v-1000h-450z" />
    <glyph glyph-name="radical" horiz-adv-x="854" 
d="M768 31l66 -17v-14h-221v14l70 17v371h-199v-371l67 -17v-14h-218v14l66 17v371h-200v-371l70 -17v-14h-220v14l66 17v371h-91v18l91 26v53c0 92 32 159 104 204c34 22 79 38 124 38c88 0 107 -49 107 -85c15 19 34 35 57 49c34 20 78 36 123 36c31 0 54 -6 71 -15l63 16
l4 -3v-708zM484 443h199v170c-31 6 -61 37 -70 99c-88 -18 -129 -71 -129 -206v-63zM199 443h200v53c0 49 8 89 24 123c-37 -14 -87 11 -103 93c-82 -20 -121 -73 -121 -202v-67z" />
    <glyph glyph-name="summation" 
d="M25 -200v1000h450v-1000h-450z" />
    </font>
</defs>
</svg>
